%FSLAX46Y46*%
G04 Gerber Fmt 4.6, Leading zero omitted, Abs format (unit mm)*
G04 Created by KiCad (PCBNEW (2014-jul-16 BZR unknown)-product) date Mon 06 Oct 2014 22:12:13 BST*
%MOMM*%
G01*
G04 APERTURE LIST*
%ADD10C,0.100000*%
%ADD11C,1.300000*%
%ADD12C,1.397000*%
%ADD13R,1.397000X1.397000*%
%ADD14C,1.524000*%
%ADD15C,3.300000*%
%ADD16C,1.676400*%
%ADD17C,0.254000*%
G04 APERTURE END LIST*
D10*
D11*
X106426000Y-117856000D03*
X108966000Y-117856000D03*
X117856000Y-117856000D03*
X122936000Y-117856000D03*
X112776000Y-116586000D03*
X112776000Y-119126000D03*
X128016000Y-116586000D03*
X128016000Y-119126000D03*
D12*
X102870000Y-113030000D03*
X105410000Y-113030000D03*
X107950000Y-113030000D03*
X110490000Y-113030000D03*
X113030000Y-113030000D03*
X115570000Y-113030000D03*
X118110000Y-113030000D03*
X120650000Y-113030000D03*
X123190000Y-113030000D03*
X125730000Y-113030000D03*
X128270000Y-113030000D03*
X130810000Y-113030000D03*
X133350000Y-113030000D03*
D13*
X100330000Y-113030000D03*
D12*
X133350000Y-105410000D03*
X130810000Y-105410000D03*
X128270000Y-105410000D03*
X125730000Y-105410000D03*
X123190000Y-105410000D03*
X120650000Y-105410000D03*
X118110000Y-105410000D03*
X115570000Y-105410000D03*
X113030000Y-105410000D03*
X110490000Y-105410000D03*
X107950000Y-105410000D03*
X105410000Y-105410000D03*
X102870000Y-105410000D03*
X100330000Y-105410000D03*
D11*
X113030000Y-91440000D03*
X107950000Y-91440000D03*
D14*
X132080000Y-116840000D03*
X132080000Y-119380000D03*
X97155000Y-111125000D03*
X97155000Y-113665000D03*
X97155000Y-108585000D03*
X97155000Y-106045000D03*
X97155000Y-116205000D03*
X97155000Y-118745000D03*
D15*
X137160000Y-88265000D03*
X97155000Y-88265000D03*
X137160000Y-118745000D03*
X101600000Y-117856000D03*
D16*
X99060000Y-100330000D03*
X99060000Y-97790000D03*
X130149600Y-99034600D03*
X132689600Y-99034600D03*
D14*
X135229600Y-99034600D03*
X127609600Y-99034600D03*
D16*
X102844600Y-93319600D03*
X102844600Y-90779600D03*
D14*
X124714000Y-97790000D03*
X116586000Y-97790000D03*
X124714000Y-94005400D03*
X116586000Y-94005400D03*
X105105200Y-101523800D03*
X113233200Y-101523800D03*
X116560600Y-90195400D03*
X124688600Y-90195400D03*
X124714000Y-101625400D03*
X116586000Y-101625400D03*
X104521000Y-97815400D03*
X112649000Y-97815400D03*
D16*
X130835400Y-91414600D03*
X130835400Y-88874600D03*
D17*
G36*
X138938000Y-117291804D02*
X138456039Y-116809001D01*
X137616509Y-116460397D01*
X136707479Y-116459604D01*
X136626842Y-116492922D01*
X136626842Y-98757939D01*
X136414610Y-98244297D01*
X136021970Y-97850971D01*
X135508700Y-97637843D01*
X134952939Y-97637358D01*
X134439297Y-97849590D01*
X134045971Y-98242230D01*
X134000977Y-98350587D01*
X133939247Y-98201189D01*
X133525191Y-97786410D01*
X132983923Y-97561656D01*
X132397848Y-97561145D01*
X132308855Y-97597916D01*
X132308855Y-91122848D01*
X132085047Y-90581189D01*
X131670991Y-90166410D01*
X131619008Y-90144824D01*
X131668811Y-90124247D01*
X132083590Y-89710191D01*
X132308344Y-89168923D01*
X132308855Y-88582848D01*
X132085047Y-88041189D01*
X131670991Y-87626410D01*
X131129723Y-87401656D01*
X130543648Y-87401145D01*
X130001989Y-87624953D01*
X129587210Y-88039009D01*
X129362456Y-88580277D01*
X129361945Y-89166352D01*
X129585753Y-89708011D01*
X129999809Y-90122790D01*
X130051791Y-90144375D01*
X130001989Y-90164953D01*
X129587210Y-90579009D01*
X129362456Y-91120277D01*
X129361945Y-91706352D01*
X129585753Y-92248011D01*
X129999809Y-92662790D01*
X130541077Y-92887544D01*
X131127152Y-92888055D01*
X131668811Y-92664247D01*
X132083590Y-92250191D01*
X132308344Y-91708923D01*
X132308855Y-91122848D01*
X132308855Y-97597916D01*
X131856189Y-97784953D01*
X131441410Y-98199009D01*
X131419824Y-98250991D01*
X131399247Y-98201189D01*
X130985191Y-97786410D01*
X130443923Y-97561656D01*
X129857848Y-97561145D01*
X129316189Y-97784953D01*
X128901410Y-98199009D01*
X128838498Y-98350516D01*
X128794610Y-98244297D01*
X128401970Y-97850971D01*
X127888700Y-97637843D01*
X127332939Y-97637358D01*
X126819297Y-97849590D01*
X126425971Y-98242230D01*
X126212843Y-98755500D01*
X126212358Y-99311261D01*
X126424590Y-99824903D01*
X126817230Y-100218229D01*
X127330500Y-100431357D01*
X127886261Y-100431842D01*
X128399903Y-100219610D01*
X128793229Y-99826970D01*
X128838222Y-99718612D01*
X128899953Y-99868011D01*
X129314009Y-100282790D01*
X129855277Y-100507544D01*
X130441352Y-100508055D01*
X130983011Y-100284247D01*
X131397790Y-99870191D01*
X131419375Y-99818208D01*
X131439953Y-99868011D01*
X131854009Y-100282790D01*
X132395277Y-100507544D01*
X132981352Y-100508055D01*
X133523011Y-100284247D01*
X133937790Y-99870191D01*
X134000701Y-99718683D01*
X134044590Y-99824903D01*
X134437230Y-100218229D01*
X134950500Y-100431357D01*
X135506261Y-100431842D01*
X136019903Y-100219610D01*
X136413229Y-99826970D01*
X136626357Y-99313700D01*
X136626842Y-98757939D01*
X136626842Y-116492922D01*
X135867342Y-116806742D01*
X135224001Y-117448961D01*
X134875397Y-118288491D01*
X134874604Y-119197521D01*
X135221742Y-120037658D01*
X135706237Y-120523000D01*
X134683731Y-120523000D01*
X134683731Y-112765914D01*
X134683731Y-105145914D01*
X134481146Y-104655620D01*
X134106353Y-104280173D01*
X133616413Y-104076732D01*
X133085914Y-104076269D01*
X132595620Y-104278854D01*
X132220173Y-104653647D01*
X132079906Y-104991446D01*
X131941146Y-104655620D01*
X131566353Y-104280173D01*
X131076413Y-104076732D01*
X130545914Y-104076269D01*
X130055620Y-104278854D01*
X129680173Y-104653647D01*
X129539906Y-104991446D01*
X129401146Y-104655620D01*
X129026353Y-104280173D01*
X128536413Y-104076732D01*
X128005914Y-104076269D01*
X127515620Y-104278854D01*
X127140173Y-104653647D01*
X126999906Y-104991446D01*
X126861146Y-104655620D01*
X126486353Y-104280173D01*
X126111242Y-104124413D01*
X126111242Y-101348739D01*
X126111242Y-97513339D01*
X126111242Y-93728739D01*
X126085842Y-93667266D01*
X126085842Y-89918739D01*
X125873610Y-89405097D01*
X125480970Y-89011771D01*
X124967700Y-88798643D01*
X124411939Y-88798158D01*
X123898297Y-89010390D01*
X123504971Y-89403030D01*
X123291843Y-89916300D01*
X123291358Y-90472061D01*
X123503590Y-90985703D01*
X123896230Y-91379029D01*
X124409500Y-91592157D01*
X124965261Y-91592642D01*
X125478903Y-91380410D01*
X125872229Y-90987770D01*
X126085357Y-90474500D01*
X126085842Y-89918739D01*
X126085842Y-93667266D01*
X125899010Y-93215097D01*
X125506370Y-92821771D01*
X124993100Y-92608643D01*
X124437339Y-92608158D01*
X123923697Y-92820390D01*
X123530371Y-93213030D01*
X123317243Y-93726300D01*
X123316758Y-94282061D01*
X123528990Y-94795703D01*
X123921630Y-95189029D01*
X124434900Y-95402157D01*
X124990661Y-95402642D01*
X125504303Y-95190410D01*
X125897629Y-94797770D01*
X126110757Y-94284500D01*
X126111242Y-93728739D01*
X126111242Y-97513339D01*
X125899010Y-96999697D01*
X125506370Y-96606371D01*
X124993100Y-96393243D01*
X124437339Y-96392758D01*
X123923697Y-96604990D01*
X123530371Y-96997630D01*
X123317243Y-97510900D01*
X123316758Y-98066661D01*
X123528990Y-98580303D01*
X123921630Y-98973629D01*
X124434900Y-99186757D01*
X124990661Y-99187242D01*
X125504303Y-98975010D01*
X125897629Y-98582370D01*
X126110757Y-98069100D01*
X126111242Y-97513339D01*
X126111242Y-101348739D01*
X125899010Y-100835097D01*
X125506370Y-100441771D01*
X124993100Y-100228643D01*
X124437339Y-100228158D01*
X123923697Y-100440390D01*
X123530371Y-100833030D01*
X123317243Y-101346300D01*
X123316758Y-101902061D01*
X123528990Y-102415703D01*
X123921630Y-102809029D01*
X124434900Y-103022157D01*
X124990661Y-103022642D01*
X125504303Y-102810410D01*
X125897629Y-102417770D01*
X126110757Y-101904500D01*
X126111242Y-101348739D01*
X126111242Y-104124413D01*
X125996413Y-104076732D01*
X125465914Y-104076269D01*
X124975620Y-104278854D01*
X124600173Y-104653647D01*
X124459906Y-104991446D01*
X124321146Y-104655620D01*
X123946353Y-104280173D01*
X123456413Y-104076732D01*
X122925914Y-104076269D01*
X122435620Y-104278854D01*
X122060173Y-104653647D01*
X121919906Y-104991446D01*
X121781146Y-104655620D01*
X121406353Y-104280173D01*
X120916413Y-104076732D01*
X120385914Y-104076269D01*
X119895620Y-104278854D01*
X119520173Y-104653647D01*
X119379906Y-104991446D01*
X119241146Y-104655620D01*
X118866353Y-104280173D01*
X118376413Y-104076732D01*
X117983242Y-104076388D01*
X117983242Y-101348739D01*
X117983242Y-97513339D01*
X117983242Y-93728739D01*
X117969744Y-93696071D01*
X117969744Y-90403098D01*
X117941962Y-89848032D01*
X117782997Y-89464257D01*
X117540813Y-89394792D01*
X117361208Y-89574397D01*
X117361208Y-89215187D01*
X117291743Y-88973003D01*
X116768298Y-88786256D01*
X116213232Y-88814038D01*
X115829457Y-88973003D01*
X115759992Y-89215187D01*
X116560600Y-90015795D01*
X117361208Y-89215187D01*
X117361208Y-89574397D01*
X116740205Y-90195400D01*
X117540813Y-90996008D01*
X117782997Y-90926543D01*
X117969744Y-90403098D01*
X117969744Y-93696071D01*
X117771010Y-93215097D01*
X117378370Y-92821771D01*
X117361208Y-92814644D01*
X117361208Y-91175613D01*
X116560600Y-90375005D01*
X116380995Y-90554610D01*
X116380995Y-90195400D01*
X115580387Y-89394792D01*
X115338203Y-89464257D01*
X115151456Y-89987702D01*
X115179238Y-90542768D01*
X115338203Y-90926543D01*
X115580387Y-90996008D01*
X116380995Y-90195400D01*
X116380995Y-90554610D01*
X115759992Y-91175613D01*
X115829457Y-91417797D01*
X116352902Y-91604544D01*
X116907968Y-91576762D01*
X117291743Y-91417797D01*
X117361208Y-91175613D01*
X117361208Y-92814644D01*
X116865100Y-92608643D01*
X116309339Y-92608158D01*
X115795697Y-92820390D01*
X115402371Y-93213030D01*
X115189243Y-93726300D01*
X115188758Y-94282061D01*
X115400990Y-94795703D01*
X115793630Y-95189029D01*
X116306900Y-95402157D01*
X116862661Y-95402642D01*
X117376303Y-95190410D01*
X117769629Y-94797770D01*
X117982757Y-94284500D01*
X117983242Y-93728739D01*
X117983242Y-97513339D01*
X117771010Y-96999697D01*
X117378370Y-96606371D01*
X116865100Y-96393243D01*
X116309339Y-96392758D01*
X115795697Y-96604990D01*
X115402371Y-96997630D01*
X115189243Y-97510900D01*
X115188758Y-98066661D01*
X115400990Y-98580303D01*
X115793630Y-98973629D01*
X116306900Y-99186757D01*
X116862661Y-99187242D01*
X117376303Y-98975010D01*
X117769629Y-98582370D01*
X117982757Y-98069100D01*
X117983242Y-97513339D01*
X117983242Y-101348739D01*
X117771010Y-100835097D01*
X117378370Y-100441771D01*
X116865100Y-100228643D01*
X116309339Y-100228158D01*
X115795697Y-100440390D01*
X115402371Y-100833030D01*
X115189243Y-101346300D01*
X115188758Y-101902061D01*
X115400990Y-102415703D01*
X115793630Y-102809029D01*
X116306900Y-103022157D01*
X116862661Y-103022642D01*
X117376303Y-102810410D01*
X117769629Y-102417770D01*
X117982757Y-101904500D01*
X117983242Y-101348739D01*
X117983242Y-104076388D01*
X117845914Y-104076269D01*
X117355620Y-104278854D01*
X116980173Y-104653647D01*
X116839906Y-104991446D01*
X116701146Y-104655620D01*
X116326353Y-104280173D01*
X115836413Y-104076732D01*
X115305914Y-104076269D01*
X114815620Y-104278854D01*
X114630442Y-104463709D01*
X114630442Y-101247139D01*
X114418210Y-100733497D01*
X114315223Y-100630330D01*
X114315223Y-91185519D01*
X114120005Y-90713057D01*
X113758845Y-90351265D01*
X113286724Y-90155223D01*
X112775519Y-90154777D01*
X112303057Y-90349995D01*
X111941265Y-90711155D01*
X111745223Y-91183276D01*
X111744777Y-91694481D01*
X111939995Y-92166943D01*
X112301155Y-92528735D01*
X112773276Y-92724777D01*
X113284481Y-92725223D01*
X113756943Y-92530005D01*
X114118735Y-92168845D01*
X114314777Y-91696724D01*
X114315223Y-91185519D01*
X114315223Y-100630330D01*
X114046242Y-100360879D01*
X114046242Y-97538739D01*
X113834010Y-97025097D01*
X113441370Y-96631771D01*
X112928100Y-96418643D01*
X112372339Y-96418158D01*
X111858697Y-96630390D01*
X111465371Y-97023030D01*
X111252243Y-97536300D01*
X111251758Y-98092061D01*
X111463990Y-98605703D01*
X111856630Y-98999029D01*
X112369900Y-99212157D01*
X112925661Y-99212642D01*
X113439303Y-99000410D01*
X113832629Y-98607770D01*
X114045757Y-98094500D01*
X114046242Y-97538739D01*
X114046242Y-100360879D01*
X114025570Y-100340171D01*
X113512300Y-100127043D01*
X112956539Y-100126558D01*
X112442897Y-100338790D01*
X112049571Y-100731430D01*
X111836443Y-101244700D01*
X111835958Y-101800461D01*
X112048190Y-102314103D01*
X112440830Y-102707429D01*
X112954100Y-102920557D01*
X113509861Y-102921042D01*
X114023503Y-102708810D01*
X114416829Y-102316170D01*
X114629957Y-101802900D01*
X114630442Y-101247139D01*
X114630442Y-104463709D01*
X114440173Y-104653647D01*
X114299906Y-104991446D01*
X114161146Y-104655620D01*
X113786353Y-104280173D01*
X113296413Y-104076732D01*
X112765914Y-104076269D01*
X112275620Y-104278854D01*
X111900173Y-104653647D01*
X111759906Y-104991446D01*
X111621146Y-104655620D01*
X111246353Y-104280173D01*
X110756413Y-104076732D01*
X110225914Y-104076269D01*
X109735620Y-104278854D01*
X109360173Y-104653647D01*
X109247622Y-104924698D01*
X109247622Y-91620922D01*
X109218083Y-91110572D01*
X109079611Y-90776271D01*
X108849016Y-90720590D01*
X108669410Y-90900195D01*
X108669410Y-90540984D01*
X108613729Y-90310389D01*
X108130922Y-90142378D01*
X107620572Y-90171917D01*
X107286271Y-90310389D01*
X107230590Y-90540984D01*
X107950000Y-91260395D01*
X108669410Y-90540984D01*
X108669410Y-90900195D01*
X108129605Y-91440000D01*
X108849016Y-92159410D01*
X109079611Y-92103729D01*
X109247622Y-91620922D01*
X109247622Y-104924698D01*
X109219906Y-104991446D01*
X109081146Y-104655620D01*
X108706353Y-104280173D01*
X108669410Y-104264832D01*
X108669410Y-92339016D01*
X107950000Y-91619605D01*
X107770395Y-91799210D01*
X107770395Y-91440000D01*
X107050984Y-90720590D01*
X106820389Y-90776271D01*
X106652378Y-91259078D01*
X106681917Y-91769428D01*
X106820389Y-92103729D01*
X107050984Y-92159410D01*
X107770395Y-91440000D01*
X107770395Y-91799210D01*
X107230590Y-92339016D01*
X107286271Y-92569611D01*
X107769078Y-92737622D01*
X108279428Y-92708083D01*
X108613729Y-92569611D01*
X108669410Y-92339016D01*
X108669410Y-104264832D01*
X108216413Y-104076732D01*
X107685914Y-104076269D01*
X107195620Y-104278854D01*
X106820173Y-104653647D01*
X106679906Y-104991446D01*
X106541146Y-104655620D01*
X106514344Y-104628771D01*
X106514344Y-101731498D01*
X106486562Y-101176432D01*
X106327597Y-100792657D01*
X106085413Y-100723192D01*
X105930144Y-100878461D01*
X105930144Y-98023098D01*
X105902362Y-97468032D01*
X105743397Y-97084257D01*
X105501213Y-97014792D01*
X105321608Y-97194397D01*
X105321608Y-96835187D01*
X105252143Y-96593003D01*
X104728698Y-96406256D01*
X104318055Y-96426809D01*
X104318055Y-93027848D01*
X104094247Y-92486189D01*
X103680191Y-92071410D01*
X103628208Y-92049824D01*
X103678011Y-92029247D01*
X104092790Y-91615191D01*
X104317544Y-91073923D01*
X104318055Y-90487848D01*
X104094247Y-89946189D01*
X103680191Y-89531410D01*
X103138923Y-89306656D01*
X102552848Y-89306145D01*
X102011189Y-89529953D01*
X101596410Y-89944009D01*
X101371656Y-90485277D01*
X101371145Y-91071352D01*
X101594953Y-91613011D01*
X102009009Y-92027790D01*
X102060991Y-92049375D01*
X102011189Y-92069953D01*
X101596410Y-92484009D01*
X101371656Y-93025277D01*
X101371145Y-93611352D01*
X101594953Y-94153011D01*
X102009009Y-94567790D01*
X102550277Y-94792544D01*
X103136352Y-94793055D01*
X103678011Y-94569247D01*
X104092790Y-94155191D01*
X104317544Y-93613923D01*
X104318055Y-93027848D01*
X104318055Y-96426809D01*
X104173632Y-96434038D01*
X103789857Y-96593003D01*
X103720392Y-96835187D01*
X104521000Y-97635795D01*
X105321608Y-96835187D01*
X105321608Y-97194397D01*
X104700605Y-97815400D01*
X105501213Y-98616008D01*
X105743397Y-98546543D01*
X105930144Y-98023098D01*
X105930144Y-100878461D01*
X105905808Y-100902797D01*
X105905808Y-100543587D01*
X105836343Y-100301403D01*
X105321608Y-100117763D01*
X105321608Y-98795613D01*
X104521000Y-97995005D01*
X104341395Y-98174610D01*
X104341395Y-97815400D01*
X103540787Y-97014792D01*
X103298603Y-97084257D01*
X103111856Y-97607702D01*
X103139638Y-98162768D01*
X103298603Y-98546543D01*
X103540787Y-98616008D01*
X104341395Y-97815400D01*
X104341395Y-98174610D01*
X103720392Y-98795613D01*
X103789857Y-99037797D01*
X104313302Y-99224544D01*
X104868368Y-99196762D01*
X105252143Y-99037797D01*
X105321608Y-98795613D01*
X105321608Y-100117763D01*
X105312898Y-100114656D01*
X104757832Y-100142438D01*
X104374057Y-100301403D01*
X104304592Y-100543587D01*
X105105200Y-101344195D01*
X105905808Y-100543587D01*
X105905808Y-100902797D01*
X105284805Y-101523800D01*
X106085413Y-102324408D01*
X106327597Y-102254943D01*
X106514344Y-101731498D01*
X106514344Y-104628771D01*
X106166353Y-104280173D01*
X105905808Y-104171985D01*
X105905808Y-102504013D01*
X105105200Y-101703405D01*
X104925595Y-101883010D01*
X104925595Y-101523800D01*
X104124987Y-100723192D01*
X103882803Y-100792657D01*
X103696056Y-101316102D01*
X103723838Y-101871168D01*
X103882803Y-102254943D01*
X104124987Y-102324408D01*
X104925595Y-101523800D01*
X104925595Y-101883010D01*
X104304592Y-102504013D01*
X104374057Y-102746197D01*
X104897502Y-102932944D01*
X105452568Y-102905162D01*
X105836343Y-102746197D01*
X105905808Y-102504013D01*
X105905808Y-104171985D01*
X105676413Y-104076732D01*
X105145914Y-104076269D01*
X104655620Y-104278854D01*
X104280173Y-104653647D01*
X104139906Y-104991446D01*
X104001146Y-104655620D01*
X103626353Y-104280173D01*
X103136413Y-104076732D01*
X102605914Y-104076269D01*
X102115620Y-104278854D01*
X101740173Y-104653647D01*
X101599906Y-104991446D01*
X101461146Y-104655620D01*
X101086353Y-104280173D01*
X100596413Y-104076732D01*
X100533455Y-104076677D01*
X100533455Y-100038248D01*
X100309647Y-99496589D01*
X99895591Y-99081810D01*
X99843608Y-99060224D01*
X99893411Y-99039647D01*
X100308190Y-98625591D01*
X100532944Y-98084323D01*
X100533455Y-97498248D01*
X100309647Y-96956589D01*
X99895591Y-96541810D01*
X99354323Y-96317056D01*
X98768248Y-96316545D01*
X98226589Y-96540353D01*
X97811810Y-96954409D01*
X97587056Y-97495677D01*
X97586545Y-98081752D01*
X97810353Y-98623411D01*
X98224409Y-99038190D01*
X98276391Y-99059775D01*
X98226589Y-99080353D01*
X97811810Y-99494409D01*
X97587056Y-100035677D01*
X97586545Y-100621752D01*
X97810353Y-101163411D01*
X98224409Y-101578190D01*
X98765677Y-101802944D01*
X99351752Y-101803455D01*
X99893411Y-101579647D01*
X100308190Y-101165591D01*
X100532944Y-100624323D01*
X100533455Y-100038248D01*
X100533455Y-104076677D01*
X100065914Y-104076269D01*
X99575620Y-104278854D01*
X99200173Y-104653647D01*
X98996732Y-105143587D01*
X98996269Y-105674086D01*
X99198854Y-106164380D01*
X99573647Y-106539827D01*
X100063587Y-106743268D01*
X100594086Y-106743731D01*
X101084380Y-106541146D01*
X101459827Y-106166353D01*
X101600093Y-105828553D01*
X101738854Y-106164380D01*
X102113647Y-106539827D01*
X102603587Y-106743268D01*
X103134086Y-106743731D01*
X103624380Y-106541146D01*
X103999827Y-106166353D01*
X104140093Y-105828553D01*
X104278854Y-106164380D01*
X104653647Y-106539827D01*
X105143587Y-106743268D01*
X105674086Y-106743731D01*
X106164380Y-106541146D01*
X106539827Y-106166353D01*
X106680093Y-105828553D01*
X106818854Y-106164380D01*
X107193647Y-106539827D01*
X107683587Y-106743268D01*
X108214086Y-106743731D01*
X108704380Y-106541146D01*
X109079827Y-106166353D01*
X109220093Y-105828553D01*
X109358854Y-106164380D01*
X109733647Y-106539827D01*
X110223587Y-106743268D01*
X110754086Y-106743731D01*
X111244380Y-106541146D01*
X111619827Y-106166353D01*
X111760093Y-105828553D01*
X111898854Y-106164380D01*
X112273647Y-106539827D01*
X112763587Y-106743268D01*
X113294086Y-106743731D01*
X113784380Y-106541146D01*
X114159827Y-106166353D01*
X114300093Y-105828553D01*
X114438854Y-106164380D01*
X114813647Y-106539827D01*
X115303587Y-106743268D01*
X115834086Y-106743731D01*
X116324380Y-106541146D01*
X116699827Y-106166353D01*
X116840093Y-105828553D01*
X116978854Y-106164380D01*
X117353647Y-106539827D01*
X117843587Y-106743268D01*
X118374086Y-106743731D01*
X118864380Y-106541146D01*
X119239827Y-106166353D01*
X119380093Y-105828553D01*
X119518854Y-106164380D01*
X119893647Y-106539827D01*
X120383587Y-106743268D01*
X120914086Y-106743731D01*
X121404380Y-106541146D01*
X121779827Y-106166353D01*
X121920093Y-105828553D01*
X122058854Y-106164380D01*
X122433647Y-106539827D01*
X122923587Y-106743268D01*
X123454086Y-106743731D01*
X123944380Y-106541146D01*
X124319827Y-106166353D01*
X124460093Y-105828553D01*
X124598854Y-106164380D01*
X124973647Y-106539827D01*
X125463587Y-106743268D01*
X125994086Y-106743731D01*
X126484380Y-106541146D01*
X126859827Y-106166353D01*
X127000093Y-105828553D01*
X127138854Y-106164380D01*
X127513647Y-106539827D01*
X128003587Y-106743268D01*
X128534086Y-106743731D01*
X129024380Y-106541146D01*
X129399827Y-106166353D01*
X129540093Y-105828553D01*
X129678854Y-106164380D01*
X130053647Y-106539827D01*
X130543587Y-106743268D01*
X131074086Y-106743731D01*
X131564380Y-106541146D01*
X131939827Y-106166353D01*
X132080093Y-105828553D01*
X132218854Y-106164380D01*
X132593647Y-106539827D01*
X133083587Y-106743268D01*
X133614086Y-106743731D01*
X134104380Y-106541146D01*
X134479827Y-106166353D01*
X134683268Y-105676413D01*
X134683731Y-105145914D01*
X134683731Y-112765914D01*
X134481146Y-112275620D01*
X134106353Y-111900173D01*
X133616413Y-111696732D01*
X133085914Y-111696269D01*
X132595620Y-111898854D01*
X132220173Y-112273647D01*
X132079906Y-112611446D01*
X131941146Y-112275620D01*
X131566353Y-111900173D01*
X131076413Y-111696732D01*
X130545914Y-111696269D01*
X130055620Y-111898854D01*
X129680173Y-112273647D01*
X129539906Y-112611446D01*
X129401146Y-112275620D01*
X129026353Y-111900173D01*
X128536413Y-111696732D01*
X128005914Y-111696269D01*
X127515620Y-111898854D01*
X127140173Y-112273647D01*
X126999906Y-112611446D01*
X126861146Y-112275620D01*
X126486353Y-111900173D01*
X125996413Y-111696732D01*
X125465914Y-111696269D01*
X124975620Y-111898854D01*
X124600173Y-112273647D01*
X124459906Y-112611446D01*
X124321146Y-112275620D01*
X123946353Y-111900173D01*
X123456413Y-111696732D01*
X122925914Y-111696269D01*
X122435620Y-111898854D01*
X122060173Y-112273647D01*
X121919906Y-112611446D01*
X121781146Y-112275620D01*
X121406353Y-111900173D01*
X120916413Y-111696732D01*
X120385914Y-111696269D01*
X119895620Y-111898854D01*
X119520173Y-112273647D01*
X119386686Y-112595118D01*
X119279800Y-112337071D01*
X119044188Y-112275417D01*
X118864583Y-112455022D01*
X118864583Y-112095812D01*
X118802929Y-111860200D01*
X118302520Y-111684073D01*
X117772801Y-111712852D01*
X117417071Y-111860200D01*
X117355417Y-112095812D01*
X118110000Y-112850395D01*
X118864583Y-112095812D01*
X118864583Y-112455022D01*
X118289605Y-113030000D01*
X119044188Y-113784583D01*
X119279800Y-113722929D01*
X119378083Y-113443688D01*
X119518854Y-113784380D01*
X119893647Y-114159827D01*
X120383587Y-114363268D01*
X120914086Y-114363731D01*
X121404380Y-114161146D01*
X121779827Y-113786353D01*
X121920093Y-113448553D01*
X122058854Y-113784380D01*
X122433647Y-114159827D01*
X122923587Y-114363268D01*
X123454086Y-114363731D01*
X123944380Y-114161146D01*
X124319827Y-113786353D01*
X124460093Y-113448553D01*
X124598854Y-113784380D01*
X124973647Y-114159827D01*
X125463587Y-114363268D01*
X125994086Y-114363731D01*
X126484380Y-114161146D01*
X126859827Y-113786353D01*
X127000093Y-113448553D01*
X127138854Y-113784380D01*
X127513647Y-114159827D01*
X128003587Y-114363268D01*
X128534086Y-114363731D01*
X129024380Y-114161146D01*
X129399827Y-113786353D01*
X129540093Y-113448553D01*
X129678854Y-113784380D01*
X130053647Y-114159827D01*
X130543587Y-114363268D01*
X131074086Y-114363731D01*
X131564380Y-114161146D01*
X131939827Y-113786353D01*
X132080093Y-113448553D01*
X132218854Y-113784380D01*
X132593647Y-114159827D01*
X133083587Y-114363268D01*
X133614086Y-114363731D01*
X134104380Y-114161146D01*
X134479827Y-113786353D01*
X134683268Y-113296413D01*
X134683731Y-112765914D01*
X134683731Y-120523000D01*
X133489144Y-120523000D01*
X133489144Y-119587698D01*
X133477242Y-119349903D01*
X133477242Y-116563339D01*
X133265010Y-116049697D01*
X132872370Y-115656371D01*
X132359100Y-115443243D01*
X131803339Y-115442758D01*
X131289697Y-115654990D01*
X130896371Y-116047630D01*
X130683243Y-116560900D01*
X130682758Y-117116661D01*
X130894990Y-117630303D01*
X131287630Y-118023629D01*
X131479727Y-118103394D01*
X131348857Y-118157603D01*
X131279392Y-118399787D01*
X132080000Y-119200395D01*
X132880608Y-118399787D01*
X132811143Y-118157603D01*
X132670682Y-118107491D01*
X132870303Y-118025010D01*
X133263629Y-117632370D01*
X133476757Y-117119100D01*
X133477242Y-116563339D01*
X133477242Y-119349903D01*
X133461362Y-119032632D01*
X133302397Y-118648857D01*
X133060213Y-118579392D01*
X132259605Y-119380000D01*
X133060213Y-120180608D01*
X133302397Y-120111143D01*
X133489144Y-119587698D01*
X133489144Y-120523000D01*
X132833916Y-120523000D01*
X132880608Y-120360213D01*
X132080000Y-119559605D01*
X131900395Y-119739210D01*
X131900395Y-119380000D01*
X131099787Y-118579392D01*
X130857603Y-118648857D01*
X130670856Y-119172302D01*
X130698638Y-119727368D01*
X130857603Y-120111143D01*
X131099787Y-120180608D01*
X131900395Y-119380000D01*
X131900395Y-119739210D01*
X131279392Y-120360213D01*
X131326083Y-120523000D01*
X129313622Y-120523000D01*
X129313622Y-116766922D01*
X129284083Y-116256572D01*
X129145611Y-115922271D01*
X128915016Y-115866590D01*
X128735410Y-116046195D01*
X128735410Y-115686984D01*
X128679729Y-115456389D01*
X128196922Y-115288378D01*
X127686572Y-115317917D01*
X127352271Y-115456389D01*
X127296590Y-115686984D01*
X128016000Y-116406395D01*
X128735410Y-115686984D01*
X128735410Y-116046195D01*
X128195605Y-116586000D01*
X128915016Y-117305410D01*
X129145611Y-117249729D01*
X129313622Y-116766922D01*
X129313622Y-120523000D01*
X129301223Y-120523000D01*
X129301223Y-118871519D01*
X129106005Y-118399057D01*
X128744845Y-118037265D01*
X128308799Y-117856203D01*
X128345428Y-117854083D01*
X128679729Y-117715611D01*
X128735410Y-117485016D01*
X128016000Y-116765605D01*
X127836395Y-116945210D01*
X127836395Y-116586000D01*
X127116984Y-115866590D01*
X126886389Y-115922271D01*
X126718378Y-116405078D01*
X126747917Y-116915428D01*
X126886389Y-117249729D01*
X127116984Y-117305410D01*
X127836395Y-116586000D01*
X127836395Y-116945210D01*
X127296590Y-117485016D01*
X127352271Y-117715611D01*
X127738860Y-117850139D01*
X127289057Y-118035995D01*
X126927265Y-118397155D01*
X126731223Y-118869276D01*
X126730777Y-119380481D01*
X126925995Y-119852943D01*
X127287155Y-120214735D01*
X127759276Y-120410777D01*
X128270481Y-120411223D01*
X128742943Y-120216005D01*
X129104735Y-119854845D01*
X129300777Y-119382724D01*
X129301223Y-118871519D01*
X129301223Y-120523000D01*
X124221223Y-120523000D01*
X124221223Y-117601519D01*
X124026005Y-117129057D01*
X123664845Y-116767265D01*
X123192724Y-116571223D01*
X122681519Y-116570777D01*
X122209057Y-116765995D01*
X121847265Y-117127155D01*
X121651223Y-117599276D01*
X121650777Y-118110481D01*
X121845995Y-118582943D01*
X122207155Y-118944735D01*
X122679276Y-119140777D01*
X123190481Y-119141223D01*
X123662943Y-118946005D01*
X124024735Y-118584845D01*
X124220777Y-118112724D01*
X124221223Y-117601519D01*
X124221223Y-120523000D01*
X119141223Y-120523000D01*
X119141223Y-117601519D01*
X118946005Y-117129057D01*
X118864583Y-117047492D01*
X118864583Y-113964188D01*
X118110000Y-113209605D01*
X117930395Y-113389210D01*
X117930395Y-113030000D01*
X117175812Y-112275417D01*
X116940200Y-112337071D01*
X116841916Y-112616311D01*
X116701146Y-112275620D01*
X116326353Y-111900173D01*
X115836413Y-111696732D01*
X115305914Y-111696269D01*
X114815620Y-111898854D01*
X114440173Y-112273647D01*
X114299906Y-112611446D01*
X114161146Y-112275620D01*
X113786353Y-111900173D01*
X113296413Y-111696732D01*
X112765914Y-111696269D01*
X112275620Y-111898854D01*
X111900173Y-112273647D01*
X111759906Y-112611446D01*
X111621146Y-112275620D01*
X111246353Y-111900173D01*
X110756413Y-111696732D01*
X110225914Y-111696269D01*
X109735620Y-111898854D01*
X109360173Y-112273647D01*
X109219906Y-112611446D01*
X109081146Y-112275620D01*
X108706353Y-111900173D01*
X108216413Y-111696732D01*
X107685914Y-111696269D01*
X107195620Y-111898854D01*
X106820173Y-112273647D01*
X106679906Y-112611446D01*
X106541146Y-112275620D01*
X106166353Y-111900173D01*
X105676413Y-111696732D01*
X105145914Y-111696269D01*
X104655620Y-111898854D01*
X104280173Y-112273647D01*
X104139906Y-112611446D01*
X104001146Y-112275620D01*
X103626353Y-111900173D01*
X103136413Y-111696732D01*
X102605914Y-111696269D01*
X102115620Y-111898854D01*
X101740173Y-112273647D01*
X101663500Y-112458295D01*
X101663500Y-112205191D01*
X101566827Y-111971802D01*
X101388199Y-111793173D01*
X101154810Y-111696500D01*
X100902191Y-111696500D01*
X99505191Y-111696500D01*
X99271802Y-111793173D01*
X99093173Y-111971801D01*
X98996500Y-112205190D01*
X98996500Y-112457809D01*
X98996500Y-113854809D01*
X99093173Y-114088198D01*
X99271801Y-114266827D01*
X99505190Y-114363500D01*
X99757809Y-114363500D01*
X101154809Y-114363500D01*
X101388198Y-114266827D01*
X101566827Y-114088199D01*
X101663500Y-113854810D01*
X101663500Y-113602191D01*
X101663500Y-113602009D01*
X101738854Y-113784380D01*
X102113647Y-114159827D01*
X102603587Y-114363268D01*
X103134086Y-114363731D01*
X103624380Y-114161146D01*
X103999827Y-113786353D01*
X104140093Y-113448553D01*
X104278854Y-113784380D01*
X104653647Y-114159827D01*
X105143587Y-114363268D01*
X105674086Y-114363731D01*
X106164380Y-114161146D01*
X106539827Y-113786353D01*
X106680093Y-113448553D01*
X106818854Y-113784380D01*
X107193647Y-114159827D01*
X107683587Y-114363268D01*
X108214086Y-114363731D01*
X108704380Y-114161146D01*
X109079827Y-113786353D01*
X109220093Y-113448553D01*
X109358854Y-113784380D01*
X109733647Y-114159827D01*
X110223587Y-114363268D01*
X110754086Y-114363731D01*
X111244380Y-114161146D01*
X111619827Y-113786353D01*
X111760093Y-113448553D01*
X111898854Y-113784380D01*
X112273647Y-114159827D01*
X112763587Y-114363268D01*
X113294086Y-114363731D01*
X113784380Y-114161146D01*
X114159827Y-113786353D01*
X114300093Y-113448553D01*
X114438854Y-113784380D01*
X114813647Y-114159827D01*
X115303587Y-114363268D01*
X115834086Y-114363731D01*
X116324380Y-114161146D01*
X116699827Y-113786353D01*
X116833313Y-113464881D01*
X116940200Y-113722929D01*
X117175812Y-113784583D01*
X117930395Y-113030000D01*
X117930395Y-113389210D01*
X117355417Y-113964188D01*
X117417071Y-114199800D01*
X117917480Y-114375927D01*
X118447199Y-114347148D01*
X118802929Y-114199800D01*
X118864583Y-113964188D01*
X118864583Y-117047492D01*
X118584845Y-116767265D01*
X118112724Y-116571223D01*
X117601519Y-116570777D01*
X117129057Y-116765995D01*
X116767265Y-117127155D01*
X116571223Y-117599276D01*
X116570777Y-118110481D01*
X116765995Y-118582943D01*
X117127155Y-118944735D01*
X117599276Y-119140777D01*
X118110481Y-119141223D01*
X118582943Y-118946005D01*
X118944735Y-118584845D01*
X119140777Y-118112724D01*
X119141223Y-117601519D01*
X119141223Y-120523000D01*
X114073622Y-120523000D01*
X114073622Y-116766922D01*
X114044083Y-116256572D01*
X113905611Y-115922271D01*
X113675016Y-115866590D01*
X113495410Y-116046195D01*
X113495410Y-115686984D01*
X113439729Y-115456389D01*
X112956922Y-115288378D01*
X112446572Y-115317917D01*
X112112271Y-115456389D01*
X112056590Y-115686984D01*
X112776000Y-116406395D01*
X113495410Y-115686984D01*
X113495410Y-116046195D01*
X112955605Y-116586000D01*
X113675016Y-117305410D01*
X113905611Y-117249729D01*
X114073622Y-116766922D01*
X114073622Y-120523000D01*
X114061223Y-120523000D01*
X114061223Y-118871519D01*
X113866005Y-118399057D01*
X113504845Y-118037265D01*
X113068799Y-117856203D01*
X113105428Y-117854083D01*
X113439729Y-117715611D01*
X113495410Y-117485016D01*
X112776000Y-116765605D01*
X112596395Y-116945210D01*
X112596395Y-116586000D01*
X111876984Y-115866590D01*
X111646389Y-115922271D01*
X111478378Y-116405078D01*
X111507917Y-116915428D01*
X111646389Y-117249729D01*
X111876984Y-117305410D01*
X112596395Y-116586000D01*
X112596395Y-116945210D01*
X112056590Y-117485016D01*
X112112271Y-117715611D01*
X112498860Y-117850139D01*
X112049057Y-118035995D01*
X111687265Y-118397155D01*
X111491223Y-118869276D01*
X111490777Y-119380481D01*
X111685995Y-119852943D01*
X112047155Y-120214735D01*
X112519276Y-120410777D01*
X113030481Y-120411223D01*
X113502943Y-120216005D01*
X113864735Y-119854845D01*
X114060777Y-119382724D01*
X114061223Y-118871519D01*
X114061223Y-120523000D01*
X110251223Y-120523000D01*
X110251223Y-117601519D01*
X110056005Y-117129057D01*
X109694845Y-116767265D01*
X109222724Y-116571223D01*
X108711519Y-116570777D01*
X108239057Y-116765995D01*
X107877265Y-117127155D01*
X107695795Y-117564181D01*
X107516005Y-117129057D01*
X107154845Y-116767265D01*
X106682724Y-116571223D01*
X106171519Y-116570777D01*
X105699057Y-116765995D01*
X105337265Y-117127155D01*
X105141223Y-117599276D01*
X105140777Y-118110481D01*
X105335995Y-118582943D01*
X105697155Y-118944735D01*
X106169276Y-119140777D01*
X106680481Y-119141223D01*
X107152943Y-118946005D01*
X107514735Y-118584845D01*
X107696204Y-118147818D01*
X107875995Y-118582943D01*
X108237155Y-118944735D01*
X108709276Y-119140777D01*
X109220481Y-119141223D01*
X109692943Y-118946005D01*
X110054735Y-118584845D01*
X110250777Y-118112724D01*
X110251223Y-117601519D01*
X110251223Y-120523000D01*
X103885396Y-120523000D01*
X103885396Y-117403479D01*
X103538258Y-116563342D01*
X102896039Y-115920001D01*
X102056509Y-115571397D01*
X101147479Y-115570604D01*
X100307342Y-115917742D01*
X99664001Y-116559961D01*
X99315397Y-117399491D01*
X99314604Y-118308521D01*
X99661742Y-119148658D01*
X100303961Y-119791999D01*
X101143491Y-120140603D01*
X102052521Y-120141396D01*
X102892658Y-119794258D01*
X103535999Y-119152039D01*
X103884603Y-118312509D01*
X103885396Y-117403479D01*
X103885396Y-120523000D01*
X98564144Y-120523000D01*
X98564144Y-106252698D01*
X98536362Y-105697632D01*
X98377397Y-105313857D01*
X98135213Y-105244392D01*
X97955608Y-105423997D01*
X97955608Y-105064787D01*
X97886143Y-104822603D01*
X97362698Y-104635856D01*
X96807632Y-104663638D01*
X96423857Y-104822603D01*
X96354392Y-105064787D01*
X97155000Y-105865395D01*
X97955608Y-105064787D01*
X97955608Y-105423997D01*
X97334605Y-106045000D01*
X98135213Y-106845608D01*
X98377397Y-106776143D01*
X98564144Y-106252698D01*
X98564144Y-120523000D01*
X98552242Y-120523000D01*
X98552242Y-118468339D01*
X98340010Y-117954697D01*
X97947370Y-117561371D01*
X97739487Y-117475050D01*
X97945303Y-117390010D01*
X98338629Y-116997370D01*
X98551757Y-116484100D01*
X98552242Y-115928339D01*
X98340010Y-115414697D01*
X97947370Y-115021371D01*
X97739487Y-114935050D01*
X97945303Y-114850010D01*
X98338629Y-114457370D01*
X98551757Y-113944100D01*
X98552242Y-113388339D01*
X98340010Y-112874697D01*
X97947370Y-112481371D01*
X97739487Y-112395050D01*
X97945303Y-112310010D01*
X98338629Y-111917370D01*
X98551757Y-111404100D01*
X98552242Y-110848339D01*
X98340010Y-110334697D01*
X97947370Y-109941371D01*
X97739487Y-109855050D01*
X97945303Y-109770010D01*
X98338629Y-109377370D01*
X98551757Y-108864100D01*
X98552242Y-108308339D01*
X98340010Y-107794697D01*
X97947370Y-107401371D01*
X97755272Y-107321605D01*
X97886143Y-107267397D01*
X97955608Y-107025213D01*
X97155000Y-106224605D01*
X96975395Y-106404210D01*
X96975395Y-106045000D01*
X96174787Y-105244392D01*
X95932603Y-105313857D01*
X95745856Y-105837302D01*
X95773638Y-106392368D01*
X95932603Y-106776143D01*
X96174787Y-106845608D01*
X96975395Y-106045000D01*
X96975395Y-106404210D01*
X96354392Y-107025213D01*
X96423857Y-107267397D01*
X96564317Y-107317508D01*
X96364697Y-107399990D01*
X95971371Y-107792630D01*
X95758243Y-108305900D01*
X95757758Y-108861661D01*
X95969990Y-109375303D01*
X96362630Y-109768629D01*
X96570512Y-109854949D01*
X96364697Y-109939990D01*
X95971371Y-110332630D01*
X95758243Y-110845900D01*
X95757758Y-111401661D01*
X95969990Y-111915303D01*
X96362630Y-112308629D01*
X96570512Y-112394949D01*
X96364697Y-112479990D01*
X95971371Y-112872630D01*
X95758243Y-113385900D01*
X95757758Y-113941661D01*
X95969990Y-114455303D01*
X96362630Y-114848629D01*
X96570512Y-114934949D01*
X96364697Y-115019990D01*
X95971371Y-115412630D01*
X95758243Y-115925900D01*
X95757758Y-116481661D01*
X95969990Y-116995303D01*
X96362630Y-117388629D01*
X96570512Y-117474949D01*
X96364697Y-117559990D01*
X95971371Y-117952630D01*
X95758243Y-118465900D01*
X95757758Y-119021661D01*
X95969990Y-119535303D01*
X96362630Y-119928629D01*
X96875900Y-120141757D01*
X97431661Y-120142242D01*
X97945303Y-119930010D01*
X98338629Y-119537370D01*
X98551757Y-119024100D01*
X98552242Y-118468339D01*
X98552242Y-120523000D01*
X95377000Y-120523000D01*
X95377000Y-89718195D01*
X95858961Y-90200999D01*
X96698491Y-90549603D01*
X97607521Y-90550396D01*
X98447658Y-90203258D01*
X99090999Y-89561039D01*
X99439603Y-88721509D01*
X99440396Y-87812479D01*
X99155095Y-87122000D01*
X135160453Y-87122000D01*
X134875397Y-87808491D01*
X134874604Y-88717521D01*
X135221742Y-89557658D01*
X135863961Y-90200999D01*
X136703491Y-90549603D01*
X137612521Y-90550396D01*
X138452658Y-90203258D01*
X138938000Y-89718762D01*
X138938000Y-117291804D01*
X138938000Y-117291804D01*
G37*
X138938000Y-117291804D02*
X138456039Y-116809001D01*
X137616509Y-116460397D01*
X136707479Y-116459604D01*
X136626842Y-116492922D01*
X136626842Y-98757939D01*
X136414610Y-98244297D01*
X136021970Y-97850971D01*
X135508700Y-97637843D01*
X134952939Y-97637358D01*
X134439297Y-97849590D01*
X134045971Y-98242230D01*
X134000977Y-98350587D01*
X133939247Y-98201189D01*
X133525191Y-97786410D01*
X132983923Y-97561656D01*
X132397848Y-97561145D01*
X132308855Y-97597916D01*
X132308855Y-91122848D01*
X132085047Y-90581189D01*
X131670991Y-90166410D01*
X131619008Y-90144824D01*
X131668811Y-90124247D01*
X132083590Y-89710191D01*
X132308344Y-89168923D01*
X132308855Y-88582848D01*
X132085047Y-88041189D01*
X131670991Y-87626410D01*
X131129723Y-87401656D01*
X130543648Y-87401145D01*
X130001989Y-87624953D01*
X129587210Y-88039009D01*
X129362456Y-88580277D01*
X129361945Y-89166352D01*
X129585753Y-89708011D01*
X129999809Y-90122790D01*
X130051791Y-90144375D01*
X130001989Y-90164953D01*
X129587210Y-90579009D01*
X129362456Y-91120277D01*
X129361945Y-91706352D01*
X129585753Y-92248011D01*
X129999809Y-92662790D01*
X130541077Y-92887544D01*
X131127152Y-92888055D01*
X131668811Y-92664247D01*
X132083590Y-92250191D01*
X132308344Y-91708923D01*
X132308855Y-91122848D01*
X132308855Y-97597916D01*
X131856189Y-97784953D01*
X131441410Y-98199009D01*
X131419824Y-98250991D01*
X131399247Y-98201189D01*
X130985191Y-97786410D01*
X130443923Y-97561656D01*
X129857848Y-97561145D01*
X129316189Y-97784953D01*
X128901410Y-98199009D01*
X128838498Y-98350516D01*
X128794610Y-98244297D01*
X128401970Y-97850971D01*
X127888700Y-97637843D01*
X127332939Y-97637358D01*
X126819297Y-97849590D01*
X126425971Y-98242230D01*
X126212843Y-98755500D01*
X126212358Y-99311261D01*
X126424590Y-99824903D01*
X126817230Y-100218229D01*
X127330500Y-100431357D01*
X127886261Y-100431842D01*
X128399903Y-100219610D01*
X128793229Y-99826970D01*
X128838222Y-99718612D01*
X128899953Y-99868011D01*
X129314009Y-100282790D01*
X129855277Y-100507544D01*
X130441352Y-100508055D01*
X130983011Y-100284247D01*
X131397790Y-99870191D01*
X131419375Y-99818208D01*
X131439953Y-99868011D01*
X131854009Y-100282790D01*
X132395277Y-100507544D01*
X132981352Y-100508055D01*
X133523011Y-100284247D01*
X133937790Y-99870191D01*
X134000701Y-99718683D01*
X134044590Y-99824903D01*
X134437230Y-100218229D01*
X134950500Y-100431357D01*
X135506261Y-100431842D01*
X136019903Y-100219610D01*
X136413229Y-99826970D01*
X136626357Y-99313700D01*
X136626842Y-98757939D01*
X136626842Y-116492922D01*
X135867342Y-116806742D01*
X135224001Y-117448961D01*
X134875397Y-118288491D01*
X134874604Y-119197521D01*
X135221742Y-120037658D01*
X135706237Y-120523000D01*
X134683731Y-120523000D01*
X134683731Y-112765914D01*
X134683731Y-105145914D01*
X134481146Y-104655620D01*
X134106353Y-104280173D01*
X133616413Y-104076732D01*
X133085914Y-104076269D01*
X132595620Y-104278854D01*
X132220173Y-104653647D01*
X132079906Y-104991446D01*
X131941146Y-104655620D01*
X131566353Y-104280173D01*
X131076413Y-104076732D01*
X130545914Y-104076269D01*
X130055620Y-104278854D01*
X129680173Y-104653647D01*
X129539906Y-104991446D01*
X129401146Y-104655620D01*
X129026353Y-104280173D01*
X128536413Y-104076732D01*
X128005914Y-104076269D01*
X127515620Y-104278854D01*
X127140173Y-104653647D01*
X126999906Y-104991446D01*
X126861146Y-104655620D01*
X126486353Y-104280173D01*
X126111242Y-104124413D01*
X126111242Y-101348739D01*
X126111242Y-97513339D01*
X126111242Y-93728739D01*
X126085842Y-93667266D01*
X126085842Y-89918739D01*
X125873610Y-89405097D01*
X125480970Y-89011771D01*
X124967700Y-88798643D01*
X124411939Y-88798158D01*
X123898297Y-89010390D01*
X123504971Y-89403030D01*
X123291843Y-89916300D01*
X123291358Y-90472061D01*
X123503590Y-90985703D01*
X123896230Y-91379029D01*
X124409500Y-91592157D01*
X124965261Y-91592642D01*
X125478903Y-91380410D01*
X125872229Y-90987770D01*
X126085357Y-90474500D01*
X126085842Y-89918739D01*
X126085842Y-93667266D01*
X125899010Y-93215097D01*
X125506370Y-92821771D01*
X124993100Y-92608643D01*
X124437339Y-92608158D01*
X123923697Y-92820390D01*
X123530371Y-93213030D01*
X123317243Y-93726300D01*
X123316758Y-94282061D01*
X123528990Y-94795703D01*
X123921630Y-95189029D01*
X124434900Y-95402157D01*
X124990661Y-95402642D01*
X125504303Y-95190410D01*
X125897629Y-94797770D01*
X126110757Y-94284500D01*
X126111242Y-93728739D01*
X126111242Y-97513339D01*
X125899010Y-96999697D01*
X125506370Y-96606371D01*
X124993100Y-96393243D01*
X124437339Y-96392758D01*
X123923697Y-96604990D01*
X123530371Y-96997630D01*
X123317243Y-97510900D01*
X123316758Y-98066661D01*
X123528990Y-98580303D01*
X123921630Y-98973629D01*
X124434900Y-99186757D01*
X124990661Y-99187242D01*
X125504303Y-98975010D01*
X125897629Y-98582370D01*
X126110757Y-98069100D01*
X126111242Y-97513339D01*
X126111242Y-101348739D01*
X125899010Y-100835097D01*
X125506370Y-100441771D01*
X124993100Y-100228643D01*
X124437339Y-100228158D01*
X123923697Y-100440390D01*
X123530371Y-100833030D01*
X123317243Y-101346300D01*
X123316758Y-101902061D01*
X123528990Y-102415703D01*
X123921630Y-102809029D01*
X124434900Y-103022157D01*
X124990661Y-103022642D01*
X125504303Y-102810410D01*
X125897629Y-102417770D01*
X126110757Y-101904500D01*
X126111242Y-101348739D01*
X126111242Y-104124413D01*
X125996413Y-104076732D01*
X125465914Y-104076269D01*
X124975620Y-104278854D01*
X124600173Y-104653647D01*
X124459906Y-104991446D01*
X124321146Y-104655620D01*
X123946353Y-104280173D01*
X123456413Y-104076732D01*
X122925914Y-104076269D01*
X122435620Y-104278854D01*
X122060173Y-104653647D01*
X121919906Y-104991446D01*
X121781146Y-104655620D01*
X121406353Y-104280173D01*
X120916413Y-104076732D01*
X120385914Y-104076269D01*
X119895620Y-104278854D01*
X119520173Y-104653647D01*
X119379906Y-104991446D01*
X119241146Y-104655620D01*
X118866353Y-104280173D01*
X118376413Y-104076732D01*
X117983242Y-104076388D01*
X117983242Y-101348739D01*
X117983242Y-97513339D01*
X117983242Y-93728739D01*
X117969744Y-93696071D01*
X117969744Y-90403098D01*
X117941962Y-89848032D01*
X117782997Y-89464257D01*
X117540813Y-89394792D01*
X117361208Y-89574397D01*
X117361208Y-89215187D01*
X117291743Y-88973003D01*
X116768298Y-88786256D01*
X116213232Y-88814038D01*
X115829457Y-88973003D01*
X115759992Y-89215187D01*
X116560600Y-90015795D01*
X117361208Y-89215187D01*
X117361208Y-89574397D01*
X116740205Y-90195400D01*
X117540813Y-90996008D01*
X117782997Y-90926543D01*
X117969744Y-90403098D01*
X117969744Y-93696071D01*
X117771010Y-93215097D01*
X117378370Y-92821771D01*
X117361208Y-92814644D01*
X117361208Y-91175613D01*
X116560600Y-90375005D01*
X116380995Y-90554610D01*
X116380995Y-90195400D01*
X115580387Y-89394792D01*
X115338203Y-89464257D01*
X115151456Y-89987702D01*
X115179238Y-90542768D01*
X115338203Y-90926543D01*
X115580387Y-90996008D01*
X116380995Y-90195400D01*
X116380995Y-90554610D01*
X115759992Y-91175613D01*
X115829457Y-91417797D01*
X116352902Y-91604544D01*
X116907968Y-91576762D01*
X117291743Y-91417797D01*
X117361208Y-91175613D01*
X117361208Y-92814644D01*
X116865100Y-92608643D01*
X116309339Y-92608158D01*
X115795697Y-92820390D01*
X115402371Y-93213030D01*
X115189243Y-93726300D01*
X115188758Y-94282061D01*
X115400990Y-94795703D01*
X115793630Y-95189029D01*
X116306900Y-95402157D01*
X116862661Y-95402642D01*
X117376303Y-95190410D01*
X117769629Y-94797770D01*
X117982757Y-94284500D01*
X117983242Y-93728739D01*
X117983242Y-97513339D01*
X117771010Y-96999697D01*
X117378370Y-96606371D01*
X116865100Y-96393243D01*
X116309339Y-96392758D01*
X115795697Y-96604990D01*
X115402371Y-96997630D01*
X115189243Y-97510900D01*
X115188758Y-98066661D01*
X115400990Y-98580303D01*
X115793630Y-98973629D01*
X116306900Y-99186757D01*
X116862661Y-99187242D01*
X117376303Y-98975010D01*
X117769629Y-98582370D01*
X117982757Y-98069100D01*
X117983242Y-97513339D01*
X117983242Y-101348739D01*
X117771010Y-100835097D01*
X117378370Y-100441771D01*
X116865100Y-100228643D01*
X116309339Y-100228158D01*
X115795697Y-100440390D01*
X115402371Y-100833030D01*
X115189243Y-101346300D01*
X115188758Y-101902061D01*
X115400990Y-102415703D01*
X115793630Y-102809029D01*
X116306900Y-103022157D01*
X116862661Y-103022642D01*
X117376303Y-102810410D01*
X117769629Y-102417770D01*
X117982757Y-101904500D01*
X117983242Y-101348739D01*
X117983242Y-104076388D01*
X117845914Y-104076269D01*
X117355620Y-104278854D01*
X116980173Y-104653647D01*
X116839906Y-104991446D01*
X116701146Y-104655620D01*
X116326353Y-104280173D01*
X115836413Y-104076732D01*
X115305914Y-104076269D01*
X114815620Y-104278854D01*
X114630442Y-104463709D01*
X114630442Y-101247139D01*
X114418210Y-100733497D01*
X114315223Y-100630330D01*
X114315223Y-91185519D01*
X114120005Y-90713057D01*
X113758845Y-90351265D01*
X113286724Y-90155223D01*
X112775519Y-90154777D01*
X112303057Y-90349995D01*
X111941265Y-90711155D01*
X111745223Y-91183276D01*
X111744777Y-91694481D01*
X111939995Y-92166943D01*
X112301155Y-92528735D01*
X112773276Y-92724777D01*
X113284481Y-92725223D01*
X113756943Y-92530005D01*
X114118735Y-92168845D01*
X114314777Y-91696724D01*
X114315223Y-91185519D01*
X114315223Y-100630330D01*
X114046242Y-100360879D01*
X114046242Y-97538739D01*
X113834010Y-97025097D01*
X113441370Y-96631771D01*
X112928100Y-96418643D01*
X112372339Y-96418158D01*
X111858697Y-96630390D01*
X111465371Y-97023030D01*
X111252243Y-97536300D01*
X111251758Y-98092061D01*
X111463990Y-98605703D01*
X111856630Y-98999029D01*
X112369900Y-99212157D01*
X112925661Y-99212642D01*
X113439303Y-99000410D01*
X113832629Y-98607770D01*
X114045757Y-98094500D01*
X114046242Y-97538739D01*
X114046242Y-100360879D01*
X114025570Y-100340171D01*
X113512300Y-100127043D01*
X112956539Y-100126558D01*
X112442897Y-100338790D01*
X112049571Y-100731430D01*
X111836443Y-101244700D01*
X111835958Y-101800461D01*
X112048190Y-102314103D01*
X112440830Y-102707429D01*
X112954100Y-102920557D01*
X113509861Y-102921042D01*
X114023503Y-102708810D01*
X114416829Y-102316170D01*
X114629957Y-101802900D01*
X114630442Y-101247139D01*
X114630442Y-104463709D01*
X114440173Y-104653647D01*
X114299906Y-104991446D01*
X114161146Y-104655620D01*
X113786353Y-104280173D01*
X113296413Y-104076732D01*
X112765914Y-104076269D01*
X112275620Y-104278854D01*
X111900173Y-104653647D01*
X111759906Y-104991446D01*
X111621146Y-104655620D01*
X111246353Y-104280173D01*
X110756413Y-104076732D01*
X110225914Y-104076269D01*
X109735620Y-104278854D01*
X109360173Y-104653647D01*
X109247622Y-104924698D01*
X109247622Y-91620922D01*
X109218083Y-91110572D01*
X109079611Y-90776271D01*
X108849016Y-90720590D01*
X108669410Y-90900195D01*
X108669410Y-90540984D01*
X108613729Y-90310389D01*
X108130922Y-90142378D01*
X107620572Y-90171917D01*
X107286271Y-90310389D01*
X107230590Y-90540984D01*
X107950000Y-91260395D01*
X108669410Y-90540984D01*
X108669410Y-90900195D01*
X108129605Y-91440000D01*
X108849016Y-92159410D01*
X109079611Y-92103729D01*
X109247622Y-91620922D01*
X109247622Y-104924698D01*
X109219906Y-104991446D01*
X109081146Y-104655620D01*
X108706353Y-104280173D01*
X108669410Y-104264832D01*
X108669410Y-92339016D01*
X107950000Y-91619605D01*
X107770395Y-91799210D01*
X107770395Y-91440000D01*
X107050984Y-90720590D01*
X106820389Y-90776271D01*
X106652378Y-91259078D01*
X106681917Y-91769428D01*
X106820389Y-92103729D01*
X107050984Y-92159410D01*
X107770395Y-91440000D01*
X107770395Y-91799210D01*
X107230590Y-92339016D01*
X107286271Y-92569611D01*
X107769078Y-92737622D01*
X108279428Y-92708083D01*
X108613729Y-92569611D01*
X108669410Y-92339016D01*
X108669410Y-104264832D01*
X108216413Y-104076732D01*
X107685914Y-104076269D01*
X107195620Y-104278854D01*
X106820173Y-104653647D01*
X106679906Y-104991446D01*
X106541146Y-104655620D01*
X106514344Y-104628771D01*
X106514344Y-101731498D01*
X106486562Y-101176432D01*
X106327597Y-100792657D01*
X106085413Y-100723192D01*
X105930144Y-100878461D01*
X105930144Y-98023098D01*
X105902362Y-97468032D01*
X105743397Y-97084257D01*
X105501213Y-97014792D01*
X105321608Y-97194397D01*
X105321608Y-96835187D01*
X105252143Y-96593003D01*
X104728698Y-96406256D01*
X104318055Y-96426809D01*
X104318055Y-93027848D01*
X104094247Y-92486189D01*
X103680191Y-92071410D01*
X103628208Y-92049824D01*
X103678011Y-92029247D01*
X104092790Y-91615191D01*
X104317544Y-91073923D01*
X104318055Y-90487848D01*
X104094247Y-89946189D01*
X103680191Y-89531410D01*
X103138923Y-89306656D01*
X102552848Y-89306145D01*
X102011189Y-89529953D01*
X101596410Y-89944009D01*
X101371656Y-90485277D01*
X101371145Y-91071352D01*
X101594953Y-91613011D01*
X102009009Y-92027790D01*
X102060991Y-92049375D01*
X102011189Y-92069953D01*
X101596410Y-92484009D01*
X101371656Y-93025277D01*
X101371145Y-93611352D01*
X101594953Y-94153011D01*
X102009009Y-94567790D01*
X102550277Y-94792544D01*
X103136352Y-94793055D01*
X103678011Y-94569247D01*
X104092790Y-94155191D01*
X104317544Y-93613923D01*
X104318055Y-93027848D01*
X104318055Y-96426809D01*
X104173632Y-96434038D01*
X103789857Y-96593003D01*
X103720392Y-96835187D01*
X104521000Y-97635795D01*
X105321608Y-96835187D01*
X105321608Y-97194397D01*
X104700605Y-97815400D01*
X105501213Y-98616008D01*
X105743397Y-98546543D01*
X105930144Y-98023098D01*
X105930144Y-100878461D01*
X105905808Y-100902797D01*
X105905808Y-100543587D01*
X105836343Y-100301403D01*
X105321608Y-100117763D01*
X105321608Y-98795613D01*
X104521000Y-97995005D01*
X104341395Y-98174610D01*
X104341395Y-97815400D01*
X103540787Y-97014792D01*
X103298603Y-97084257D01*
X103111856Y-97607702D01*
X103139638Y-98162768D01*
X103298603Y-98546543D01*
X103540787Y-98616008D01*
X104341395Y-97815400D01*
X104341395Y-98174610D01*
X103720392Y-98795613D01*
X103789857Y-99037797D01*
X104313302Y-99224544D01*
X104868368Y-99196762D01*
X105252143Y-99037797D01*
X105321608Y-98795613D01*
X105321608Y-100117763D01*
X105312898Y-100114656D01*
X104757832Y-100142438D01*
X104374057Y-100301403D01*
X104304592Y-100543587D01*
X105105200Y-101344195D01*
X105905808Y-100543587D01*
X105905808Y-100902797D01*
X105284805Y-101523800D01*
X106085413Y-102324408D01*
X106327597Y-102254943D01*
X106514344Y-101731498D01*
X106514344Y-104628771D01*
X106166353Y-104280173D01*
X105905808Y-104171985D01*
X105905808Y-102504013D01*
X105105200Y-101703405D01*
X104925595Y-101883010D01*
X104925595Y-101523800D01*
X104124987Y-100723192D01*
X103882803Y-100792657D01*
X103696056Y-101316102D01*
X103723838Y-101871168D01*
X103882803Y-102254943D01*
X104124987Y-102324408D01*
X104925595Y-101523800D01*
X104925595Y-101883010D01*
X104304592Y-102504013D01*
X104374057Y-102746197D01*
X104897502Y-102932944D01*
X105452568Y-102905162D01*
X105836343Y-102746197D01*
X105905808Y-102504013D01*
X105905808Y-104171985D01*
X105676413Y-104076732D01*
X105145914Y-104076269D01*
X104655620Y-104278854D01*
X104280173Y-104653647D01*
X104139906Y-104991446D01*
X104001146Y-104655620D01*
X103626353Y-104280173D01*
X103136413Y-104076732D01*
X102605914Y-104076269D01*
X102115620Y-104278854D01*
X101740173Y-104653647D01*
X101599906Y-104991446D01*
X101461146Y-104655620D01*
X101086353Y-104280173D01*
X100596413Y-104076732D01*
X100533455Y-104076677D01*
X100533455Y-100038248D01*
X100309647Y-99496589D01*
X99895591Y-99081810D01*
X99843608Y-99060224D01*
X99893411Y-99039647D01*
X100308190Y-98625591D01*
X100532944Y-98084323D01*
X100533455Y-97498248D01*
X100309647Y-96956589D01*
X99895591Y-96541810D01*
X99354323Y-96317056D01*
X98768248Y-96316545D01*
X98226589Y-96540353D01*
X97811810Y-96954409D01*
X97587056Y-97495677D01*
X97586545Y-98081752D01*
X97810353Y-98623411D01*
X98224409Y-99038190D01*
X98276391Y-99059775D01*
X98226589Y-99080353D01*
X97811810Y-99494409D01*
X97587056Y-100035677D01*
X97586545Y-100621752D01*
X97810353Y-101163411D01*
X98224409Y-101578190D01*
X98765677Y-101802944D01*
X99351752Y-101803455D01*
X99893411Y-101579647D01*
X100308190Y-101165591D01*
X100532944Y-100624323D01*
X100533455Y-100038248D01*
X100533455Y-104076677D01*
X100065914Y-104076269D01*
X99575620Y-104278854D01*
X99200173Y-104653647D01*
X98996732Y-105143587D01*
X98996269Y-105674086D01*
X99198854Y-106164380D01*
X99573647Y-106539827D01*
X100063587Y-106743268D01*
X100594086Y-106743731D01*
X101084380Y-106541146D01*
X101459827Y-106166353D01*
X101600093Y-105828553D01*
X101738854Y-106164380D01*
X102113647Y-106539827D01*
X102603587Y-106743268D01*
X103134086Y-106743731D01*
X103624380Y-106541146D01*
X103999827Y-106166353D01*
X104140093Y-105828553D01*
X104278854Y-106164380D01*
X104653647Y-106539827D01*
X105143587Y-106743268D01*
X105674086Y-106743731D01*
X106164380Y-106541146D01*
X106539827Y-106166353D01*
X106680093Y-105828553D01*
X106818854Y-106164380D01*
X107193647Y-106539827D01*
X107683587Y-106743268D01*
X108214086Y-106743731D01*
X108704380Y-106541146D01*
X109079827Y-106166353D01*
X109220093Y-105828553D01*
X109358854Y-106164380D01*
X109733647Y-106539827D01*
X110223587Y-106743268D01*
X110754086Y-106743731D01*
X111244380Y-106541146D01*
X111619827Y-106166353D01*
X111760093Y-105828553D01*
X111898854Y-106164380D01*
X112273647Y-106539827D01*
X112763587Y-106743268D01*
X113294086Y-106743731D01*
X113784380Y-106541146D01*
X114159827Y-106166353D01*
X114300093Y-105828553D01*
X114438854Y-106164380D01*
X114813647Y-106539827D01*
X115303587Y-106743268D01*
X115834086Y-106743731D01*
X116324380Y-106541146D01*
X116699827Y-106166353D01*
X116840093Y-105828553D01*
X116978854Y-106164380D01*
X117353647Y-106539827D01*
X117843587Y-106743268D01*
X118374086Y-106743731D01*
X118864380Y-106541146D01*
X119239827Y-106166353D01*
X119380093Y-105828553D01*
X119518854Y-106164380D01*
X119893647Y-106539827D01*
X120383587Y-106743268D01*
X120914086Y-106743731D01*
X121404380Y-106541146D01*
X121779827Y-106166353D01*
X121920093Y-105828553D01*
X122058854Y-106164380D01*
X122433647Y-106539827D01*
X122923587Y-106743268D01*
X123454086Y-106743731D01*
X123944380Y-106541146D01*
X124319827Y-106166353D01*
X124460093Y-105828553D01*
X124598854Y-106164380D01*
X124973647Y-106539827D01*
X125463587Y-106743268D01*
X125994086Y-106743731D01*
X126484380Y-106541146D01*
X126859827Y-106166353D01*
X127000093Y-105828553D01*
X127138854Y-106164380D01*
X127513647Y-106539827D01*
X128003587Y-106743268D01*
X128534086Y-106743731D01*
X129024380Y-106541146D01*
X129399827Y-106166353D01*
X129540093Y-105828553D01*
X129678854Y-106164380D01*
X130053647Y-106539827D01*
X130543587Y-106743268D01*
X131074086Y-106743731D01*
X131564380Y-106541146D01*
X131939827Y-106166353D01*
X132080093Y-105828553D01*
X132218854Y-106164380D01*
X132593647Y-106539827D01*
X133083587Y-106743268D01*
X133614086Y-106743731D01*
X134104380Y-106541146D01*
X134479827Y-106166353D01*
X134683268Y-105676413D01*
X134683731Y-105145914D01*
X134683731Y-112765914D01*
X134481146Y-112275620D01*
X134106353Y-111900173D01*
X133616413Y-111696732D01*
X133085914Y-111696269D01*
X132595620Y-111898854D01*
X132220173Y-112273647D01*
X132079906Y-112611446D01*
X131941146Y-112275620D01*
X131566353Y-111900173D01*
X131076413Y-111696732D01*
X130545914Y-111696269D01*
X130055620Y-111898854D01*
X129680173Y-112273647D01*
X129539906Y-112611446D01*
X129401146Y-112275620D01*
X129026353Y-111900173D01*
X128536413Y-111696732D01*
X128005914Y-111696269D01*
X127515620Y-111898854D01*
X127140173Y-112273647D01*
X126999906Y-112611446D01*
X126861146Y-112275620D01*
X126486353Y-111900173D01*
X125996413Y-111696732D01*
X125465914Y-111696269D01*
X124975620Y-111898854D01*
X124600173Y-112273647D01*
X124459906Y-112611446D01*
X124321146Y-112275620D01*
X123946353Y-111900173D01*
X123456413Y-111696732D01*
X122925914Y-111696269D01*
X122435620Y-111898854D01*
X122060173Y-112273647D01*
X121919906Y-112611446D01*
X121781146Y-112275620D01*
X121406353Y-111900173D01*
X120916413Y-111696732D01*
X120385914Y-111696269D01*
X119895620Y-111898854D01*
X119520173Y-112273647D01*
X119386686Y-112595118D01*
X119279800Y-112337071D01*
X119044188Y-112275417D01*
X118864583Y-112455022D01*
X118864583Y-112095812D01*
X118802929Y-111860200D01*
X118302520Y-111684073D01*
X117772801Y-111712852D01*
X117417071Y-111860200D01*
X117355417Y-112095812D01*
X118110000Y-112850395D01*
X118864583Y-112095812D01*
X118864583Y-112455022D01*
X118289605Y-113030000D01*
X119044188Y-113784583D01*
X119279800Y-113722929D01*
X119378083Y-113443688D01*
X119518854Y-113784380D01*
X119893647Y-114159827D01*
X120383587Y-114363268D01*
X120914086Y-114363731D01*
X121404380Y-114161146D01*
X121779827Y-113786353D01*
X121920093Y-113448553D01*
X122058854Y-113784380D01*
X122433647Y-114159827D01*
X122923587Y-114363268D01*
X123454086Y-114363731D01*
X123944380Y-114161146D01*
X124319827Y-113786353D01*
X124460093Y-113448553D01*
X124598854Y-113784380D01*
X124973647Y-114159827D01*
X125463587Y-114363268D01*
X125994086Y-114363731D01*
X126484380Y-114161146D01*
X126859827Y-113786353D01*
X127000093Y-113448553D01*
X127138854Y-113784380D01*
X127513647Y-114159827D01*
X128003587Y-114363268D01*
X128534086Y-114363731D01*
X129024380Y-114161146D01*
X129399827Y-113786353D01*
X129540093Y-113448553D01*
X129678854Y-113784380D01*
X130053647Y-114159827D01*
X130543587Y-114363268D01*
X131074086Y-114363731D01*
X131564380Y-114161146D01*
X131939827Y-113786353D01*
X132080093Y-113448553D01*
X132218854Y-113784380D01*
X132593647Y-114159827D01*
X133083587Y-114363268D01*
X133614086Y-114363731D01*
X134104380Y-114161146D01*
X134479827Y-113786353D01*
X134683268Y-113296413D01*
X134683731Y-112765914D01*
X134683731Y-120523000D01*
X133489144Y-120523000D01*
X133489144Y-119587698D01*
X133477242Y-119349903D01*
X133477242Y-116563339D01*
X133265010Y-116049697D01*
X132872370Y-115656371D01*
X132359100Y-115443243D01*
X131803339Y-115442758D01*
X131289697Y-115654990D01*
X130896371Y-116047630D01*
X130683243Y-116560900D01*
X130682758Y-117116661D01*
X130894990Y-117630303D01*
X131287630Y-118023629D01*
X131479727Y-118103394D01*
X131348857Y-118157603D01*
X131279392Y-118399787D01*
X132080000Y-119200395D01*
X132880608Y-118399787D01*
X132811143Y-118157603D01*
X132670682Y-118107491D01*
X132870303Y-118025010D01*
X133263629Y-117632370D01*
X133476757Y-117119100D01*
X133477242Y-116563339D01*
X133477242Y-119349903D01*
X133461362Y-119032632D01*
X133302397Y-118648857D01*
X133060213Y-118579392D01*
X132259605Y-119380000D01*
X133060213Y-120180608D01*
X133302397Y-120111143D01*
X133489144Y-119587698D01*
X133489144Y-120523000D01*
X132833916Y-120523000D01*
X132880608Y-120360213D01*
X132080000Y-119559605D01*
X131900395Y-119739210D01*
X131900395Y-119380000D01*
X131099787Y-118579392D01*
X130857603Y-118648857D01*
X130670856Y-119172302D01*
X130698638Y-119727368D01*
X130857603Y-120111143D01*
X131099787Y-120180608D01*
X131900395Y-119380000D01*
X131900395Y-119739210D01*
X131279392Y-120360213D01*
X131326083Y-120523000D01*
X129313622Y-120523000D01*
X129313622Y-116766922D01*
X129284083Y-116256572D01*
X129145611Y-115922271D01*
X128915016Y-115866590D01*
X128735410Y-116046195D01*
X128735410Y-115686984D01*
X128679729Y-115456389D01*
X128196922Y-115288378D01*
X127686572Y-115317917D01*
X127352271Y-115456389D01*
X127296590Y-115686984D01*
X128016000Y-116406395D01*
X128735410Y-115686984D01*
X128735410Y-116046195D01*
X128195605Y-116586000D01*
X128915016Y-117305410D01*
X129145611Y-117249729D01*
X129313622Y-116766922D01*
X129313622Y-120523000D01*
X129301223Y-120523000D01*
X129301223Y-118871519D01*
X129106005Y-118399057D01*
X128744845Y-118037265D01*
X128308799Y-117856203D01*
X128345428Y-117854083D01*
X128679729Y-117715611D01*
X128735410Y-117485016D01*
X128016000Y-116765605D01*
X127836395Y-116945210D01*
X127836395Y-116586000D01*
X127116984Y-115866590D01*
X126886389Y-115922271D01*
X126718378Y-116405078D01*
X126747917Y-116915428D01*
X126886389Y-117249729D01*
X127116984Y-117305410D01*
X127836395Y-116586000D01*
X127836395Y-116945210D01*
X127296590Y-117485016D01*
X127352271Y-117715611D01*
X127738860Y-117850139D01*
X127289057Y-118035995D01*
X126927265Y-118397155D01*
X126731223Y-118869276D01*
X126730777Y-119380481D01*
X126925995Y-119852943D01*
X127287155Y-120214735D01*
X127759276Y-120410777D01*
X128270481Y-120411223D01*
X128742943Y-120216005D01*
X129104735Y-119854845D01*
X129300777Y-119382724D01*
X129301223Y-118871519D01*
X129301223Y-120523000D01*
X124221223Y-120523000D01*
X124221223Y-117601519D01*
X124026005Y-117129057D01*
X123664845Y-116767265D01*
X123192724Y-116571223D01*
X122681519Y-116570777D01*
X122209057Y-116765995D01*
X121847265Y-117127155D01*
X121651223Y-117599276D01*
X121650777Y-118110481D01*
X121845995Y-118582943D01*
X122207155Y-118944735D01*
X122679276Y-119140777D01*
X123190481Y-119141223D01*
X123662943Y-118946005D01*
X124024735Y-118584845D01*
X124220777Y-118112724D01*
X124221223Y-117601519D01*
X124221223Y-120523000D01*
X119141223Y-120523000D01*
X119141223Y-117601519D01*
X118946005Y-117129057D01*
X118864583Y-117047492D01*
X118864583Y-113964188D01*
X118110000Y-113209605D01*
X117930395Y-113389210D01*
X117930395Y-113030000D01*
X117175812Y-112275417D01*
X116940200Y-112337071D01*
X116841916Y-112616311D01*
X116701146Y-112275620D01*
X116326353Y-111900173D01*
X115836413Y-111696732D01*
X115305914Y-111696269D01*
X114815620Y-111898854D01*
X114440173Y-112273647D01*
X114299906Y-112611446D01*
X114161146Y-112275620D01*
X113786353Y-111900173D01*
X113296413Y-111696732D01*
X112765914Y-111696269D01*
X112275620Y-111898854D01*
X111900173Y-112273647D01*
X111759906Y-112611446D01*
X111621146Y-112275620D01*
X111246353Y-111900173D01*
X110756413Y-111696732D01*
X110225914Y-111696269D01*
X109735620Y-111898854D01*
X109360173Y-112273647D01*
X109219906Y-112611446D01*
X109081146Y-112275620D01*
X108706353Y-111900173D01*
X108216413Y-111696732D01*
X107685914Y-111696269D01*
X107195620Y-111898854D01*
X106820173Y-112273647D01*
X106679906Y-112611446D01*
X106541146Y-112275620D01*
X106166353Y-111900173D01*
X105676413Y-111696732D01*
X105145914Y-111696269D01*
X104655620Y-111898854D01*
X104280173Y-112273647D01*
X104139906Y-112611446D01*
X104001146Y-112275620D01*
X103626353Y-111900173D01*
X103136413Y-111696732D01*
X102605914Y-111696269D01*
X102115620Y-111898854D01*
X101740173Y-112273647D01*
X101663500Y-112458295D01*
X101663500Y-112205191D01*
X101566827Y-111971802D01*
X101388199Y-111793173D01*
X101154810Y-111696500D01*
X100902191Y-111696500D01*
X99505191Y-111696500D01*
X99271802Y-111793173D01*
X99093173Y-111971801D01*
X98996500Y-112205190D01*
X98996500Y-112457809D01*
X98996500Y-113854809D01*
X99093173Y-114088198D01*
X99271801Y-114266827D01*
X99505190Y-114363500D01*
X99757809Y-114363500D01*
X101154809Y-114363500D01*
X101388198Y-114266827D01*
X101566827Y-114088199D01*
X101663500Y-113854810D01*
X101663500Y-113602191D01*
X101663500Y-113602009D01*
X101738854Y-113784380D01*
X102113647Y-114159827D01*
X102603587Y-114363268D01*
X103134086Y-114363731D01*
X103624380Y-114161146D01*
X103999827Y-113786353D01*
X104140093Y-113448553D01*
X104278854Y-113784380D01*
X104653647Y-114159827D01*
X105143587Y-114363268D01*
X105674086Y-114363731D01*
X106164380Y-114161146D01*
X106539827Y-113786353D01*
X106680093Y-113448553D01*
X106818854Y-113784380D01*
X107193647Y-114159827D01*
X107683587Y-114363268D01*
X108214086Y-114363731D01*
X108704380Y-114161146D01*
X109079827Y-113786353D01*
X109220093Y-113448553D01*
X109358854Y-113784380D01*
X109733647Y-114159827D01*
X110223587Y-114363268D01*
X110754086Y-114363731D01*
X111244380Y-114161146D01*
X111619827Y-113786353D01*
X111760093Y-113448553D01*
X111898854Y-113784380D01*
X112273647Y-114159827D01*
X112763587Y-114363268D01*
X113294086Y-114363731D01*
X113784380Y-114161146D01*
X114159827Y-113786353D01*
X114300093Y-113448553D01*
X114438854Y-113784380D01*
X114813647Y-114159827D01*
X115303587Y-114363268D01*
X115834086Y-114363731D01*
X116324380Y-114161146D01*
X116699827Y-113786353D01*
X116833313Y-113464881D01*
X116940200Y-113722929D01*
X117175812Y-113784583D01*
X117930395Y-113030000D01*
X117930395Y-113389210D01*
X117355417Y-113964188D01*
X117417071Y-114199800D01*
X117917480Y-114375927D01*
X118447199Y-114347148D01*
X118802929Y-114199800D01*
X118864583Y-113964188D01*
X118864583Y-117047492D01*
X118584845Y-116767265D01*
X118112724Y-116571223D01*
X117601519Y-116570777D01*
X117129057Y-116765995D01*
X116767265Y-117127155D01*
X116571223Y-117599276D01*
X116570777Y-118110481D01*
X116765995Y-118582943D01*
X117127155Y-118944735D01*
X117599276Y-119140777D01*
X118110481Y-119141223D01*
X118582943Y-118946005D01*
X118944735Y-118584845D01*
X119140777Y-118112724D01*
X119141223Y-117601519D01*
X119141223Y-120523000D01*
X114073622Y-120523000D01*
X114073622Y-116766922D01*
X114044083Y-116256572D01*
X113905611Y-115922271D01*
X113675016Y-115866590D01*
X113495410Y-116046195D01*
X113495410Y-115686984D01*
X113439729Y-115456389D01*
X112956922Y-115288378D01*
X112446572Y-115317917D01*
X112112271Y-115456389D01*
X112056590Y-115686984D01*
X112776000Y-116406395D01*
X113495410Y-115686984D01*
X113495410Y-116046195D01*
X112955605Y-116586000D01*
X113675016Y-117305410D01*
X113905611Y-117249729D01*
X114073622Y-116766922D01*
X114073622Y-120523000D01*
X114061223Y-120523000D01*
X114061223Y-118871519D01*
X113866005Y-118399057D01*
X113504845Y-118037265D01*
X113068799Y-117856203D01*
X113105428Y-117854083D01*
X113439729Y-117715611D01*
X113495410Y-117485016D01*
X112776000Y-116765605D01*
X112596395Y-116945210D01*
X112596395Y-116586000D01*
X111876984Y-115866590D01*
X111646389Y-115922271D01*
X111478378Y-116405078D01*
X111507917Y-116915428D01*
X111646389Y-117249729D01*
X111876984Y-117305410D01*
X112596395Y-116586000D01*
X112596395Y-116945210D01*
X112056590Y-117485016D01*
X112112271Y-117715611D01*
X112498860Y-117850139D01*
X112049057Y-118035995D01*
X111687265Y-118397155D01*
X111491223Y-118869276D01*
X111490777Y-119380481D01*
X111685995Y-119852943D01*
X112047155Y-120214735D01*
X112519276Y-120410777D01*
X113030481Y-120411223D01*
X113502943Y-120216005D01*
X113864735Y-119854845D01*
X114060777Y-119382724D01*
X114061223Y-118871519D01*
X114061223Y-120523000D01*
X110251223Y-120523000D01*
X110251223Y-117601519D01*
X110056005Y-117129057D01*
X109694845Y-116767265D01*
X109222724Y-116571223D01*
X108711519Y-116570777D01*
X108239057Y-116765995D01*
X107877265Y-117127155D01*
X107695795Y-117564181D01*
X107516005Y-117129057D01*
X107154845Y-116767265D01*
X106682724Y-116571223D01*
X106171519Y-116570777D01*
X105699057Y-116765995D01*
X105337265Y-117127155D01*
X105141223Y-117599276D01*
X105140777Y-118110481D01*
X105335995Y-118582943D01*
X105697155Y-118944735D01*
X106169276Y-119140777D01*
X106680481Y-119141223D01*
X107152943Y-118946005D01*
X107514735Y-118584845D01*
X107696204Y-118147818D01*
X107875995Y-118582943D01*
X108237155Y-118944735D01*
X108709276Y-119140777D01*
X109220481Y-119141223D01*
X109692943Y-118946005D01*
X110054735Y-118584845D01*
X110250777Y-118112724D01*
X110251223Y-117601519D01*
X110251223Y-120523000D01*
X103885396Y-120523000D01*
X103885396Y-117403479D01*
X103538258Y-116563342D01*
X102896039Y-115920001D01*
X102056509Y-115571397D01*
X101147479Y-115570604D01*
X100307342Y-115917742D01*
X99664001Y-116559961D01*
X99315397Y-117399491D01*
X99314604Y-118308521D01*
X99661742Y-119148658D01*
X100303961Y-119791999D01*
X101143491Y-120140603D01*
X102052521Y-120141396D01*
X102892658Y-119794258D01*
X103535999Y-119152039D01*
X103884603Y-118312509D01*
X103885396Y-117403479D01*
X103885396Y-120523000D01*
X98564144Y-120523000D01*
X98564144Y-106252698D01*
X98536362Y-105697632D01*
X98377397Y-105313857D01*
X98135213Y-105244392D01*
X97955608Y-105423997D01*
X97955608Y-105064787D01*
X97886143Y-104822603D01*
X97362698Y-104635856D01*
X96807632Y-104663638D01*
X96423857Y-104822603D01*
X96354392Y-105064787D01*
X97155000Y-105865395D01*
X97955608Y-105064787D01*
X97955608Y-105423997D01*
X97334605Y-106045000D01*
X98135213Y-106845608D01*
X98377397Y-106776143D01*
X98564144Y-106252698D01*
X98564144Y-120523000D01*
X98552242Y-120523000D01*
X98552242Y-118468339D01*
X98340010Y-117954697D01*
X97947370Y-117561371D01*
X97739487Y-117475050D01*
X97945303Y-117390010D01*
X98338629Y-116997370D01*
X98551757Y-116484100D01*
X98552242Y-115928339D01*
X98340010Y-115414697D01*
X97947370Y-115021371D01*
X97739487Y-114935050D01*
X97945303Y-114850010D01*
X98338629Y-114457370D01*
X98551757Y-113944100D01*
X98552242Y-113388339D01*
X98340010Y-112874697D01*
X97947370Y-112481371D01*
X97739487Y-112395050D01*
X97945303Y-112310010D01*
X98338629Y-111917370D01*
X98551757Y-111404100D01*
X98552242Y-110848339D01*
X98340010Y-110334697D01*
X97947370Y-109941371D01*
X97739487Y-109855050D01*
X97945303Y-109770010D01*
X98338629Y-109377370D01*
X98551757Y-108864100D01*
X98552242Y-108308339D01*
X98340010Y-107794697D01*
X97947370Y-107401371D01*
X97755272Y-107321605D01*
X97886143Y-107267397D01*
X97955608Y-107025213D01*
X97155000Y-106224605D01*
X96975395Y-106404210D01*
X96975395Y-106045000D01*
X96174787Y-105244392D01*
X95932603Y-105313857D01*
X95745856Y-105837302D01*
X95773638Y-106392368D01*
X95932603Y-106776143D01*
X96174787Y-106845608D01*
X96975395Y-106045000D01*
X96975395Y-106404210D01*
X96354392Y-107025213D01*
X96423857Y-107267397D01*
X96564317Y-107317508D01*
X96364697Y-107399990D01*
X95971371Y-107792630D01*
X95758243Y-108305900D01*
X95757758Y-108861661D01*
X95969990Y-109375303D01*
X96362630Y-109768629D01*
X96570512Y-109854949D01*
X96364697Y-109939990D01*
X95971371Y-110332630D01*
X95758243Y-110845900D01*
X95757758Y-111401661D01*
X95969990Y-111915303D01*
X96362630Y-112308629D01*
X96570512Y-112394949D01*
X96364697Y-112479990D01*
X95971371Y-112872630D01*
X95758243Y-113385900D01*
X95757758Y-113941661D01*
X95969990Y-114455303D01*
X96362630Y-114848629D01*
X96570512Y-114934949D01*
X96364697Y-115019990D01*
X95971371Y-115412630D01*
X95758243Y-115925900D01*
X95757758Y-116481661D01*
X95969990Y-116995303D01*
X96362630Y-117388629D01*
X96570512Y-117474949D01*
X96364697Y-117559990D01*
X95971371Y-117952630D01*
X95758243Y-118465900D01*
X95757758Y-119021661D01*
X95969990Y-119535303D01*
X96362630Y-119928629D01*
X96875900Y-120141757D01*
X97431661Y-120142242D01*
X97945303Y-119930010D01*
X98338629Y-119537370D01*
X98551757Y-119024100D01*
X98552242Y-118468339D01*
X98552242Y-120523000D01*
X95377000Y-120523000D01*
X95377000Y-89718195D01*
X95858961Y-90200999D01*
X96698491Y-90549603D01*
X97607521Y-90550396D01*
X98447658Y-90203258D01*
X99090999Y-89561039D01*
X99439603Y-88721509D01*
X99440396Y-87812479D01*
X99155095Y-87122000D01*
X135160453Y-87122000D01*
X134875397Y-87808491D01*
X134874604Y-88717521D01*
X135221742Y-89557658D01*
X135863961Y-90200999D01*
X136703491Y-90549603D01*
X137612521Y-90550396D01*
X138452658Y-90203258D01*
X138938000Y-89718762D01*
X138938000Y-117291804D01*
M02*
