%FSLAX46Y46*%
G04 Gerber Fmt 4.6, Leading zero omitted, Abs format (unit mm)*
G04 Created by KiCad (PCBNEW (2014-jul-16 BZR unknown)-product) date Mon 06 Oct 2014 22:12:13 BST*
%MOMM*%
G01*
G04 APERTURE LIST*
%ADD10C,0.100000*%
%ADD11C,0.300000*%
G04 APERTURE END LIST*
D10*
D11*
X136228971Y-100780200D02*
X136228971Y-101851629D01*
X135586114Y-101208772D02*
X137514686Y-100780200D01*
X136871829Y-101708772D02*
X136871829Y-100637343D01*
X137514686Y-101280200D02*
X135586114Y-101708772D01*
X137228971Y-102351629D02*
X135728971Y-102351629D01*
X135728971Y-102923057D01*
X135800400Y-103065915D01*
X135871829Y-103137343D01*
X136014686Y-103208772D01*
X136228971Y-103208772D01*
X136371829Y-103137343D01*
X136443257Y-103065915D01*
X136514686Y-102923057D01*
X136514686Y-102351629D01*
X136228971Y-104494486D02*
X137228971Y-104494486D01*
X136228971Y-103851629D02*
X137014686Y-103851629D01*
X137157543Y-103923057D01*
X137228971Y-104065915D01*
X137228971Y-104280200D01*
X137157543Y-104423057D01*
X137086114Y-104494486D01*
X137228971Y-105208772D02*
X136228971Y-105208772D01*
X136371829Y-105208772D02*
X136300400Y-105280200D01*
X136228971Y-105423058D01*
X136228971Y-105637343D01*
X136300400Y-105780200D01*
X136443257Y-105851629D01*
X137228971Y-105851629D01*
X136443257Y-105851629D02*
X136300400Y-105923058D01*
X136228971Y-106065915D01*
X136228971Y-106280200D01*
X136300400Y-106423058D01*
X136443257Y-106494486D01*
X137228971Y-106494486D01*
X136228971Y-107208772D02*
X137728971Y-107208772D01*
X136300400Y-107208772D02*
X136228971Y-107351629D01*
X136228971Y-107637343D01*
X136300400Y-107780200D01*
X136371829Y-107851629D01*
X136514686Y-107923058D01*
X136943257Y-107923058D01*
X137086114Y-107851629D01*
X137157543Y-107780200D01*
X137228971Y-107637343D01*
X137228971Y-107351629D01*
X137157543Y-107208772D01*
X137228971Y-108565915D02*
X135728971Y-108565915D01*
X136657543Y-108708772D02*
X137228971Y-109137343D01*
X136228971Y-109137343D02*
X136800400Y-108565915D01*
X137228971Y-109780201D02*
X136228971Y-109780201D01*
X135728971Y-109780201D02*
X135800400Y-109708772D01*
X135871829Y-109780201D01*
X135800400Y-109851629D01*
X135728971Y-109780201D01*
X135871829Y-109780201D01*
X136228971Y-110494487D02*
X137228971Y-110494487D01*
X136371829Y-110494487D02*
X136300400Y-110565915D01*
X136228971Y-110708773D01*
X136228971Y-110923058D01*
X136300400Y-111065915D01*
X136443257Y-111137344D01*
X137228971Y-111137344D01*
X137371829Y-111494487D02*
X137371829Y-112637344D01*
X137228971Y-113208773D02*
X137157543Y-113065915D01*
X137014686Y-112994487D01*
X135728971Y-112994487D01*
X137157543Y-114351629D02*
X137228971Y-114208772D01*
X137228971Y-113923058D01*
X137157543Y-113780201D01*
X137014686Y-113708772D01*
X136443257Y-113708772D01*
X136300400Y-113780201D01*
X136228971Y-113923058D01*
X136228971Y-114208772D01*
X136300400Y-114351629D01*
X136443257Y-114423058D01*
X136586114Y-114423058D01*
X136728971Y-113708772D01*
X137228971Y-115708772D02*
X135728971Y-115708772D01*
X137157543Y-115708772D02*
X137228971Y-115565915D01*
X137228971Y-115280201D01*
X137157543Y-115137343D01*
X137086114Y-115065915D01*
X136943257Y-114994486D01*
X136514686Y-114994486D01*
X136371829Y-115065915D01*
X136300400Y-115137343D01*
X136228971Y-115280201D01*
X136228971Y-115565915D01*
X136300400Y-115708772D01*
X116882856Y-107912857D02*
X117382856Y-107912857D01*
X117382856Y-108698571D02*
X117382856Y-107198571D01*
X116668570Y-107198571D01*
X115454285Y-108698571D02*
X115454285Y-107912857D01*
X115525714Y-107770000D01*
X115668571Y-107698571D01*
X115954285Y-107698571D01*
X116097142Y-107770000D01*
X115454285Y-108627143D02*
X115597142Y-108698571D01*
X115954285Y-108698571D01*
X116097142Y-108627143D01*
X116168571Y-108484286D01*
X116168571Y-108341429D01*
X116097142Y-108198571D01*
X115954285Y-108127143D01*
X115597142Y-108127143D01*
X115454285Y-108055714D01*
X114097142Y-108627143D02*
X114239999Y-108698571D01*
X114525713Y-108698571D01*
X114668571Y-108627143D01*
X114739999Y-108555714D01*
X114811428Y-108412857D01*
X114811428Y-107984286D01*
X114739999Y-107841429D01*
X114668571Y-107770000D01*
X114525713Y-107698571D01*
X114239999Y-107698571D01*
X114097142Y-107770000D01*
X112882857Y-108627143D02*
X113025714Y-108698571D01*
X113311428Y-108698571D01*
X113454285Y-108627143D01*
X113525714Y-108484286D01*
X113525714Y-107912857D01*
X113454285Y-107770000D01*
X113311428Y-107698571D01*
X113025714Y-107698571D01*
X112882857Y-107770000D01*
X112811428Y-107912857D01*
X112811428Y-108055714D01*
X113525714Y-108198571D01*
X111954285Y-108698571D02*
X112097143Y-108627143D01*
X112168571Y-108484286D01*
X112168571Y-107198571D01*
X110811429Y-108627143D02*
X110954286Y-108698571D01*
X111240000Y-108698571D01*
X111382857Y-108627143D01*
X111454286Y-108484286D01*
X111454286Y-107912857D01*
X111382857Y-107770000D01*
X111240000Y-107698571D01*
X110954286Y-107698571D01*
X110811429Y-107770000D01*
X110740000Y-107912857D01*
X110740000Y-108055714D01*
X111454286Y-108198571D01*
X110168572Y-108627143D02*
X110025715Y-108698571D01*
X109740000Y-108698571D01*
X109597143Y-108627143D01*
X109525715Y-108484286D01*
X109525715Y-108412857D01*
X109597143Y-108270000D01*
X109740000Y-108198571D01*
X109954286Y-108198571D01*
X110097143Y-108127143D01*
X110168572Y-107984286D01*
X110168572Y-107912857D01*
X110097143Y-107770000D01*
X109954286Y-107698571D01*
X109740000Y-107698571D01*
X109597143Y-107770000D01*
X108954286Y-108627143D02*
X108811429Y-108698571D01*
X108525714Y-108698571D01*
X108382857Y-108627143D01*
X108311429Y-108484286D01*
X108311429Y-108412857D01*
X108382857Y-108270000D01*
X108525714Y-108198571D01*
X108740000Y-108198571D01*
X108882857Y-108127143D01*
X108954286Y-107984286D01*
X108954286Y-107912857D01*
X108882857Y-107770000D01*
X108740000Y-107698571D01*
X108525714Y-107698571D01*
X108382857Y-107770000D01*
X107882857Y-107698571D02*
X107311428Y-107698571D01*
X107668571Y-107198571D02*
X107668571Y-108484286D01*
X107597143Y-108627143D01*
X107454285Y-108698571D01*
X107311428Y-108698571D01*
X106240000Y-108627143D02*
X106382857Y-108698571D01*
X106668571Y-108698571D01*
X106811428Y-108627143D01*
X106882857Y-108484286D01*
X106882857Y-107912857D01*
X106811428Y-107770000D01*
X106668571Y-107698571D01*
X106382857Y-107698571D01*
X106240000Y-107770000D01*
X106168571Y-107912857D01*
X106168571Y-108055714D01*
X106882857Y-108198571D01*
X104882857Y-108627143D02*
X105025714Y-108698571D01*
X105311428Y-108698571D01*
X105454286Y-108627143D01*
X105525714Y-108555714D01*
X105597143Y-108412857D01*
X105597143Y-107984286D01*
X105525714Y-107841429D01*
X105454286Y-107770000D01*
X105311428Y-107698571D01*
X105025714Y-107698571D01*
X104882857Y-107770000D01*
X104240000Y-108698571D02*
X104240000Y-107198571D01*
X103597143Y-108698571D02*
X103597143Y-107912857D01*
X103668572Y-107770000D01*
X103811429Y-107698571D01*
X104025714Y-107698571D01*
X104168572Y-107770000D01*
X104240000Y-107841429D01*
X113061428Y-109741429D02*
X112989999Y-109670000D01*
X112847142Y-109598571D01*
X112489999Y-109598571D01*
X112347142Y-109670000D01*
X112275713Y-109741429D01*
X112204285Y-109884286D01*
X112204285Y-110027143D01*
X112275713Y-110241429D01*
X113132856Y-111098571D01*
X112204285Y-111098571D01*
X111275714Y-109598571D02*
X111132857Y-109598571D01*
X110990000Y-109670000D01*
X110918571Y-109741429D01*
X110847142Y-109884286D01*
X110775714Y-110170000D01*
X110775714Y-110527143D01*
X110847142Y-110812857D01*
X110918571Y-110955714D01*
X110990000Y-111027143D01*
X111132857Y-111098571D01*
X111275714Y-111098571D01*
X111418571Y-111027143D01*
X111490000Y-110955714D01*
X111561428Y-110812857D01*
X111632857Y-110527143D01*
X111632857Y-110170000D01*
X111561428Y-109884286D01*
X111490000Y-109741429D01*
X111418571Y-109670000D01*
X111275714Y-109598571D01*
X109347143Y-111098571D02*
X110204286Y-111098571D01*
X109775714Y-111098571D02*
X109775714Y-109598571D01*
X109918571Y-109812857D01*
X110061429Y-109955714D01*
X110204286Y-110027143D01*
X108061429Y-110098571D02*
X108061429Y-111098571D01*
X108418572Y-109527143D02*
X108775715Y-110598571D01*
X107847143Y-110598571D01*
M02*
