%FSLAX46Y46*%
G04 Gerber Fmt 4.6, Leading zero omitted, Abs format (unit mm)*
G04 Created by KiCad (PCBNEW (2014-jul-16 BZR unknown)-product) date Mon 06 Oct 2014 22:12:13 BST*
%MOMM*%
G01*
G04 APERTURE LIST*
%ADD10C,0.100000*%
%ADD11C,1.300000*%
%ADD12C,1.397000*%
%ADD13R,1.397000X1.397000*%
%ADD14C,1.524000*%
%ADD15C,3.300000*%
%ADD16C,1.676400*%
G04 APERTURE END LIST*
D10*
D11*
X106426000Y-117856000D03*
X108966000Y-117856000D03*
X117856000Y-117856000D03*
X122936000Y-117856000D03*
X112776000Y-116586000D03*
X112776000Y-119126000D03*
X128016000Y-116586000D03*
X128016000Y-119126000D03*
D12*
X102870000Y-113030000D03*
X105410000Y-113030000D03*
X107950000Y-113030000D03*
X110490000Y-113030000D03*
X113030000Y-113030000D03*
X115570000Y-113030000D03*
X118110000Y-113030000D03*
X120650000Y-113030000D03*
X123190000Y-113030000D03*
X125730000Y-113030000D03*
X128270000Y-113030000D03*
X130810000Y-113030000D03*
X133350000Y-113030000D03*
D13*
X100330000Y-113030000D03*
D12*
X133350000Y-105410000D03*
X130810000Y-105410000D03*
X128270000Y-105410000D03*
X125730000Y-105410000D03*
X123190000Y-105410000D03*
X120650000Y-105410000D03*
X118110000Y-105410000D03*
X115570000Y-105410000D03*
X113030000Y-105410000D03*
X110490000Y-105410000D03*
X107950000Y-105410000D03*
X105410000Y-105410000D03*
X102870000Y-105410000D03*
X100330000Y-105410000D03*
D11*
X113030000Y-91440000D03*
X107950000Y-91440000D03*
D14*
X132080000Y-116840000D03*
X132080000Y-119380000D03*
X97155000Y-111125000D03*
X97155000Y-113665000D03*
X97155000Y-108585000D03*
X97155000Y-106045000D03*
X97155000Y-116205000D03*
X97155000Y-118745000D03*
D15*
X137160000Y-88265000D03*
X97155000Y-88265000D03*
X137160000Y-118745000D03*
X101600000Y-117856000D03*
D16*
X99060000Y-100330000D03*
X99060000Y-97790000D03*
X130149600Y-99034600D03*
X132689600Y-99034600D03*
D14*
X135229600Y-99034600D03*
X127609600Y-99034600D03*
D16*
X102844600Y-93319600D03*
X102844600Y-90779600D03*
D14*
X124714000Y-97790000D03*
X116586000Y-97790000D03*
X124714000Y-94005400D03*
X116586000Y-94005400D03*
X105105200Y-101523800D03*
X113233200Y-101523800D03*
X116560600Y-90195400D03*
X124688600Y-90195400D03*
X124714000Y-101625400D03*
X116586000Y-101625400D03*
X104521000Y-97815400D03*
X112649000Y-97815400D03*
D16*
X130835400Y-91414600D03*
X130835400Y-88874600D03*
M02*
