%FSLAX46Y46*%
G04 Gerber Fmt 4.6, Leading zero omitted, Abs format (unit mm)*
G04 Created by KiCad (PCBNEW (2014-jul-16 BZR unknown)-product) date Mon 06 Oct 2014 22:12:13 BST*
%MOMM*%
G01*
G04 APERTURE LIST*
%ADD10C,0.100000*%
%ADD11C,0.150000*%
%ADD12C,0.304800*%
%ADD13C,0.381000*%
%ADD14C,0.127000*%
%ADD15C,0.203200*%
%ADD16C,0.254000*%
%ADD17C,0.285750*%
%ADD18C,0.088900*%
G04 APERTURE END LIST*
D10*
D11*
X109728000Y-117856000D02*
G75*
G03X109728000Y-117856000I-2032000J0D01*
G74*
G01*
X115316000Y-115570000D02*
X125476000Y-115570000D01*
X125476000Y-115570000D02*
X125476000Y-120142000D01*
X125476000Y-120142000D02*
X115316000Y-120142000D01*
X115316000Y-115570000D02*
X115316000Y-120142000D01*
D12*
X114046000Y-115366800D02*
X114046000Y-120396000D01*
X114046000Y-120396000D02*
X111506000Y-120396000D01*
X111506000Y-120396000D02*
X111506000Y-115316000D01*
X111506000Y-115316000D02*
X114046000Y-115316000D01*
X113411000Y-115316000D02*
X114046000Y-115951000D01*
X129286000Y-115366800D02*
X129286000Y-120396000D01*
X129286000Y-120396000D02*
X126746000Y-120396000D01*
X126746000Y-120396000D02*
X126746000Y-115316000D01*
X126746000Y-115316000D02*
X129286000Y-115316000D01*
X128651000Y-115316000D02*
X129286000Y-115951000D01*
D11*
X99314000Y-104140000D02*
X99314000Y-114300000D01*
X99314000Y-114300000D02*
X134366000Y-114300000D01*
X134366000Y-114300000D02*
X134366000Y-104140000D01*
X134366000Y-104140000D02*
X99314000Y-104140000D01*
D13*
X99441000Y-107950000D02*
X100711000Y-107950000D01*
X100711000Y-107950000D02*
X100711000Y-110490000D01*
X100711000Y-110490000D02*
X99441000Y-110490000D01*
D11*
X113665000Y-94488000D02*
X113665000Y-88138000D01*
X113665000Y-88138000D02*
X107315000Y-88138000D01*
X107315000Y-88138000D02*
X107315000Y-94488000D01*
X107315000Y-94488000D02*
X113665000Y-94488000D01*
D14*
X111990000Y-91440000D02*
G75*
G03X111990000Y-91440000I-1500000J0D01*
G74*
G01*
D15*
X100965000Y-96215200D02*
X97155000Y-96215200D01*
D16*
X97152332Y-96268003D02*
G75*
G03X100965000Y-96266000I1907668J-2537997D01*
G74*
G01*
D15*
X134264400Y-100939600D02*
X134264400Y-97129600D01*
D16*
X134211597Y-97126932D02*
G75*
G03X134213600Y-100939600I-2537997J-1907668D01*
G74*
G01*
D15*
X104749600Y-89204800D02*
X100939600Y-89204800D01*
D16*
X100936932Y-89257603D02*
G75*
G03X104749600Y-89255600I1907668J-2537997D01*
G74*
G01*
D11*
X117856000Y-97790000D02*
X117475000Y-97790000D01*
X123444000Y-97790000D02*
X123825000Y-97790000D01*
X123444000Y-99060000D02*
X117856000Y-99060000D01*
X117856000Y-99060000D02*
X117856000Y-96520000D01*
X117856000Y-96520000D02*
X123444000Y-96520000D01*
X123444000Y-96520000D02*
X123444000Y-99060000D01*
X117856000Y-94005400D02*
X117475000Y-94005400D01*
X123444000Y-94005400D02*
X123825000Y-94005400D01*
X123444000Y-95275400D02*
X117856000Y-95275400D01*
X117856000Y-95275400D02*
X117856000Y-92735400D01*
X117856000Y-92735400D02*
X123444000Y-92735400D01*
X123444000Y-92735400D02*
X123444000Y-95275400D01*
X111963200Y-101523800D02*
X112344200Y-101523800D01*
X106375200Y-101523800D02*
X105994200Y-101523800D01*
X106375200Y-100253800D02*
X111963200Y-100253800D01*
X111963200Y-100253800D02*
X111963200Y-102793800D01*
X111963200Y-102793800D02*
X106375200Y-102793800D01*
X106375200Y-102793800D02*
X106375200Y-100253800D01*
X123418600Y-90195400D02*
X123799600Y-90195400D01*
X117830600Y-90195400D02*
X117449600Y-90195400D01*
X117830600Y-88925400D02*
X123418600Y-88925400D01*
X123418600Y-88925400D02*
X123418600Y-91465400D01*
X123418600Y-91465400D02*
X117830600Y-91465400D01*
X117830600Y-91465400D02*
X117830600Y-88925400D01*
X117856000Y-101625400D02*
X117475000Y-101625400D01*
X123444000Y-101625400D02*
X123825000Y-101625400D01*
X123444000Y-102895400D02*
X117856000Y-102895400D01*
X117856000Y-102895400D02*
X117856000Y-100355400D01*
X117856000Y-100355400D02*
X123444000Y-100355400D01*
X123444000Y-100355400D02*
X123444000Y-102895400D01*
X111379000Y-97815400D02*
X111760000Y-97815400D01*
X105791000Y-97815400D02*
X105410000Y-97815400D01*
X105791000Y-96545400D02*
X111379000Y-96545400D01*
X111379000Y-96545400D02*
X111379000Y-99085400D01*
X111379000Y-99085400D02*
X105791000Y-99085400D01*
X105791000Y-99085400D02*
X105791000Y-96545400D01*
D15*
X132740400Y-87299800D02*
X128930400Y-87299800D01*
D16*
X128927732Y-87352603D02*
G75*
G03X132740400Y-87350600I1907668J-2537997D01*
G74*
G01*
D11*
X106261867Y-114729467D02*
X106328534Y-114729467D01*
X106395200Y-114762800D01*
X106428534Y-114796133D01*
X106461867Y-114862800D01*
X106495200Y-114996133D01*
X106495200Y-115162800D01*
X106461867Y-115296133D01*
X106428534Y-115362800D01*
X106395200Y-115396133D01*
X106328534Y-115429467D01*
X106261867Y-115429467D01*
X106195200Y-115396133D01*
X106161867Y-115362800D01*
X106128534Y-115296133D01*
X106095200Y-115162800D01*
X106095200Y-114996133D01*
X106128534Y-114862800D01*
X106161867Y-114796133D01*
X106195200Y-114762800D01*
X106261867Y-114729467D01*
X106795201Y-115362800D02*
X106828534Y-115396133D01*
X106795201Y-115429467D01*
X106761867Y-115396133D01*
X106795201Y-115362800D01*
X106795201Y-115429467D01*
X107495200Y-115429467D02*
X107095200Y-115429467D01*
X107295200Y-115429467D02*
X107295200Y-114729467D01*
X107228534Y-114829467D01*
X107161867Y-114896133D01*
X107095200Y-114929467D01*
X108095201Y-114962800D02*
X108095201Y-115429467D01*
X107795201Y-114962800D02*
X107795201Y-115329467D01*
X107828534Y-115396133D01*
X107895201Y-115429467D01*
X107995201Y-115429467D01*
X108061867Y-115396133D01*
X108095201Y-115362800D01*
X108328534Y-114962800D02*
X108595200Y-114962800D01*
X108428534Y-115429467D02*
X108428534Y-114829467D01*
X108461867Y-114762800D01*
X108528534Y-114729467D01*
X108595200Y-114729467D01*
X109195200Y-115429467D02*
X108795200Y-115429467D01*
X108995200Y-115429467D02*
X108995200Y-114729467D01*
X108928534Y-114829467D01*
X108861867Y-114896133D01*
X108795200Y-114929467D01*
X108160286Y-113311714D02*
X108088857Y-113383143D01*
X107874571Y-113454571D01*
X107731714Y-113454571D01*
X107517429Y-113383143D01*
X107374571Y-113240286D01*
X107303143Y-113097429D01*
X107231714Y-112811714D01*
X107231714Y-112597429D01*
X107303143Y-112311714D01*
X107374571Y-112168857D01*
X107517429Y-112026000D01*
X107731714Y-111954571D01*
X107874571Y-111954571D01*
X108088857Y-112026000D01*
X108160286Y-112097429D01*
X118862666Y-119442667D02*
X118462666Y-119442667D01*
X118662666Y-119442667D02*
X118662666Y-118742667D01*
X118596000Y-118842667D01*
X118529333Y-118909333D01*
X118462666Y-118942667D01*
X119462667Y-118742667D02*
X119329333Y-118742667D01*
X119262667Y-118776000D01*
X119229333Y-118809333D01*
X119162667Y-118909333D01*
X119129333Y-119042667D01*
X119129333Y-119309333D01*
X119162667Y-119376000D01*
X119196000Y-119409333D01*
X119262667Y-119442667D01*
X119396000Y-119442667D01*
X119462667Y-119409333D01*
X119496000Y-119376000D01*
X119529333Y-119309333D01*
X119529333Y-119142667D01*
X119496000Y-119076000D01*
X119462667Y-119042667D01*
X119396000Y-119009333D01*
X119262667Y-119009333D01*
X119196000Y-119042667D01*
X119162667Y-119076000D01*
X119129333Y-119142667D01*
X119829334Y-119442667D02*
X119829334Y-118976000D01*
X119829334Y-119042667D02*
X119862667Y-119009333D01*
X119929334Y-118976000D01*
X120029334Y-118976000D01*
X120096000Y-119009333D01*
X120129334Y-119076000D01*
X120129334Y-119442667D01*
X120129334Y-119076000D02*
X120162667Y-119009333D01*
X120229334Y-118976000D01*
X120329334Y-118976000D01*
X120396000Y-119009333D01*
X120429334Y-119076000D01*
X120429334Y-119442667D01*
X120762667Y-119442667D02*
X120762667Y-118742667D01*
X121062667Y-119442667D02*
X121062667Y-119076000D01*
X121029333Y-119009333D01*
X120962667Y-118976000D01*
X120862667Y-118976000D01*
X120796000Y-119009333D01*
X120762667Y-119042667D01*
X121329333Y-118976000D02*
X121696000Y-118976000D01*
X121329333Y-119442667D01*
X121696000Y-119442667D01*
X122329333Y-119442667D02*
X121929333Y-119442667D01*
X122129333Y-119442667D02*
X122129333Y-118742667D01*
X122062667Y-118842667D01*
X121996000Y-118909333D01*
X121929333Y-118942667D01*
X118779334Y-116836000D02*
X118746000Y-116869333D01*
X118646000Y-116902667D01*
X118579334Y-116902667D01*
X118479334Y-116869333D01*
X118412667Y-116802667D01*
X118379334Y-116736000D01*
X118346000Y-116602667D01*
X118346000Y-116502667D01*
X118379334Y-116369333D01*
X118412667Y-116302667D01*
X118479334Y-116236000D01*
X118579334Y-116202667D01*
X118646000Y-116202667D01*
X118746000Y-116236000D01*
X118779334Y-116269333D01*
X119479334Y-116902667D02*
X119246000Y-116569333D01*
X119079334Y-116902667D02*
X119079334Y-116202667D01*
X119346000Y-116202667D01*
X119412667Y-116236000D01*
X119446000Y-116269333D01*
X119479334Y-116336000D01*
X119479334Y-116436000D01*
X119446000Y-116502667D01*
X119412667Y-116536000D01*
X119346000Y-116569333D01*
X119079334Y-116569333D01*
X119912667Y-116569333D02*
X119912667Y-116902667D01*
X119679334Y-116202667D02*
X119912667Y-116569333D01*
X120146000Y-116202667D01*
X120346000Y-116869333D02*
X120446000Y-116902667D01*
X120612667Y-116902667D01*
X120679334Y-116869333D01*
X120712667Y-116836000D01*
X120746000Y-116769333D01*
X120746000Y-116702667D01*
X120712667Y-116636000D01*
X120679334Y-116602667D01*
X120612667Y-116569333D01*
X120479334Y-116536000D01*
X120412667Y-116502667D01*
X120379334Y-116469333D01*
X120346000Y-116402667D01*
X120346000Y-116336000D01*
X120379334Y-116269333D01*
X120412667Y-116236000D01*
X120479334Y-116202667D01*
X120646000Y-116202667D01*
X120746000Y-116236000D01*
X120946001Y-116202667D02*
X121346001Y-116202667D01*
X121146001Y-116902667D02*
X121146001Y-116202667D01*
X121546000Y-116702667D02*
X121879334Y-116702667D01*
X121479334Y-116902667D02*
X121712667Y-116202667D01*
X121946000Y-116902667D01*
X122512667Y-116902667D02*
X122179334Y-116902667D01*
X122179334Y-116202667D01*
D15*
X109961419Y-119755991D02*
X109913800Y-119708372D01*
X109866181Y-119613134D01*
X109866181Y-119375038D01*
X109913800Y-119279800D01*
X109961419Y-119232181D01*
X110056657Y-119184562D01*
X110151895Y-119184562D01*
X110294752Y-119232181D01*
X110866181Y-119803610D01*
X110866181Y-119184562D01*
X109961419Y-118803610D02*
X109913800Y-118755991D01*
X109866181Y-118660753D01*
X109866181Y-118422657D01*
X109913800Y-118327419D01*
X109961419Y-118279800D01*
X110056657Y-118232181D01*
X110151895Y-118232181D01*
X110294752Y-118279800D01*
X110866181Y-118851229D01*
X110866181Y-118232181D01*
X110199514Y-117803610D02*
X111199514Y-117803610D01*
X110247133Y-117803610D02*
X110199514Y-117708372D01*
X110199514Y-117517895D01*
X110247133Y-117422657D01*
X110294752Y-117375038D01*
X110389990Y-117327419D01*
X110675705Y-117327419D01*
X110770943Y-117375038D01*
X110818562Y-117422657D01*
X110866181Y-117517895D01*
X110866181Y-117708372D01*
X110818562Y-117803610D01*
X110199514Y-117041705D02*
X110199514Y-116660753D01*
X110866181Y-116898848D02*
X110009038Y-116898848D01*
X109913800Y-116851229D01*
X109866181Y-116755991D01*
X109866181Y-116660753D01*
X110866181Y-115803609D02*
X110866181Y-116375038D01*
X110866181Y-116089324D02*
X109866181Y-116089324D01*
X110009038Y-116184562D01*
X110104276Y-116279800D01*
X110151895Y-116375038D01*
X129664581Y-120016209D02*
X129616200Y-119967828D01*
X129567819Y-119871066D01*
X129567819Y-119629162D01*
X129616200Y-119532400D01*
X129664581Y-119484019D01*
X129761343Y-119435638D01*
X129858105Y-119435638D01*
X130003248Y-119484019D01*
X130583819Y-120064590D01*
X130583819Y-119435638D01*
X129664581Y-119048590D02*
X129616200Y-119000209D01*
X129567819Y-118903447D01*
X129567819Y-118661543D01*
X129616200Y-118564781D01*
X129664581Y-118516400D01*
X129761343Y-118468019D01*
X129858105Y-118468019D01*
X130003248Y-118516400D01*
X130583819Y-119096971D01*
X130583819Y-118468019D01*
X129906486Y-118032590D02*
X130922486Y-118032590D01*
X129954867Y-118032590D02*
X129906486Y-117935828D01*
X129906486Y-117742305D01*
X129954867Y-117645543D01*
X130003248Y-117597162D01*
X130100010Y-117548781D01*
X130390295Y-117548781D01*
X130487057Y-117597162D01*
X130535438Y-117645543D01*
X130583819Y-117742305D01*
X130583819Y-117935828D01*
X130535438Y-118032590D01*
X129906486Y-117258495D02*
X129906486Y-116871447D01*
X130583819Y-117113352D02*
X129712962Y-117113352D01*
X129616200Y-117064971D01*
X129567819Y-116968209D01*
X129567819Y-116871447D01*
X129664581Y-116581162D02*
X129616200Y-116532781D01*
X129567819Y-116436019D01*
X129567819Y-116194115D01*
X129616200Y-116097353D01*
X129664581Y-116048972D01*
X129761343Y-116000591D01*
X129858105Y-116000591D01*
X130003248Y-116048972D01*
X130583819Y-116629543D01*
X130583819Y-116000591D01*
D17*
X104294215Y-109909429D02*
X104294215Y-108385429D01*
X105491644Y-109764286D02*
X105437215Y-109836857D01*
X105273929Y-109909429D01*
X105165072Y-109909429D01*
X105001787Y-109836857D01*
X104892929Y-109691714D01*
X104838501Y-109546571D01*
X104784072Y-109256286D01*
X104784072Y-109038571D01*
X104838501Y-108748286D01*
X104892929Y-108603143D01*
X105001787Y-108458000D01*
X105165072Y-108385429D01*
X105273929Y-108385429D01*
X105437215Y-108458000D01*
X105491644Y-108530571D01*
X106580215Y-109909429D02*
X105927072Y-109909429D01*
X106253644Y-109909429D02*
X106253644Y-108385429D01*
X106144787Y-108603143D01*
X106035929Y-108748286D01*
X105927072Y-108820857D01*
D12*
D17*
X121148929Y-109474000D02*
X121693215Y-109474000D01*
X121040072Y-109909429D02*
X121421072Y-108385429D01*
X121802072Y-109909429D01*
X122019786Y-108385429D02*
X122672929Y-108385429D01*
X122346358Y-109909429D02*
X122346358Y-108385429D01*
X123053929Y-109909429D02*
X123053929Y-108385429D01*
X123434929Y-109474000D01*
X123815929Y-108385429D01*
X123815929Y-109909429D01*
X124360215Y-109111143D02*
X124741215Y-109111143D01*
X124904501Y-109909429D02*
X124360215Y-109909429D01*
X124360215Y-108385429D01*
X124904501Y-108385429D01*
X125993072Y-108458000D02*
X125884215Y-108385429D01*
X125720929Y-108385429D01*
X125557644Y-108458000D01*
X125448786Y-108603143D01*
X125394358Y-108748286D01*
X125339929Y-109038571D01*
X125339929Y-109256286D01*
X125394358Y-109546571D01*
X125448786Y-109691714D01*
X125557644Y-109836857D01*
X125720929Y-109909429D01*
X125829786Y-109909429D01*
X125993072Y-109836857D01*
X126047501Y-109764286D01*
X126047501Y-109256286D01*
X125829786Y-109256286D01*
X126482929Y-109474000D02*
X127027215Y-109474000D01*
X126374072Y-109909429D02*
X126755072Y-108385429D01*
X127136072Y-109909429D01*
X127408215Y-108385429D02*
X128115786Y-108385429D01*
X127734786Y-108966000D01*
X127898072Y-108966000D01*
X128006929Y-109038571D01*
X128061358Y-109111143D01*
X128115786Y-109256286D01*
X128115786Y-109619143D01*
X128061358Y-109764286D01*
X128006929Y-109836857D01*
X127898072Y-109909429D01*
X127571500Y-109909429D01*
X127462643Y-109836857D01*
X127408215Y-109764286D01*
X128551214Y-108530571D02*
X128605643Y-108458000D01*
X128714500Y-108385429D01*
X128986643Y-108385429D01*
X129095500Y-108458000D01*
X129149929Y-108530571D01*
X129204357Y-108675714D01*
X129204357Y-108820857D01*
X129149929Y-109038571D01*
X128496786Y-109909429D01*
X129204357Y-109909429D01*
X129857500Y-109038571D02*
X129748642Y-108966000D01*
X129694214Y-108893429D01*
X129639785Y-108748286D01*
X129639785Y-108675714D01*
X129694214Y-108530571D01*
X129748642Y-108458000D01*
X129857500Y-108385429D01*
X130075214Y-108385429D01*
X130184071Y-108458000D01*
X130238500Y-108530571D01*
X130292928Y-108675714D01*
X130292928Y-108748286D01*
X130238500Y-108893429D01*
X130184071Y-108966000D01*
X130075214Y-109038571D01*
X129857500Y-109038571D01*
X129748642Y-109111143D01*
X129694214Y-109183714D01*
X129639785Y-109328857D01*
X129639785Y-109619143D01*
X129694214Y-109764286D01*
X129748642Y-109836857D01*
X129857500Y-109909429D01*
X130075214Y-109909429D01*
X130184071Y-109836857D01*
X130238500Y-109764286D01*
X130292928Y-109619143D01*
X130292928Y-109328857D01*
X130238500Y-109183714D01*
X130184071Y-109111143D01*
X130075214Y-109038571D01*
X130782785Y-109328857D02*
X131653642Y-109328857D01*
X132197928Y-109909429D02*
X132197928Y-108385429D01*
X132633356Y-108385429D01*
X132742214Y-108458000D01*
X132796642Y-108530571D01*
X132851071Y-108675714D01*
X132851071Y-108893429D01*
X132796642Y-109038571D01*
X132742214Y-109111143D01*
X132633356Y-109183714D01*
X132197928Y-109183714D01*
D15*
X109135334Y-89311238D02*
X109280477Y-89359619D01*
X109522381Y-89359619D01*
X109619143Y-89311238D01*
X109667524Y-89262857D01*
X109715905Y-89166095D01*
X109715905Y-89069333D01*
X109667524Y-88972571D01*
X109619143Y-88924190D01*
X109522381Y-88875810D01*
X109328858Y-88827429D01*
X109232096Y-88779048D01*
X109183715Y-88730667D01*
X109135334Y-88633905D01*
X109135334Y-88537143D01*
X109183715Y-88440381D01*
X109232096Y-88392000D01*
X109328858Y-88343619D01*
X109570762Y-88343619D01*
X109715905Y-88392000D01*
X110054572Y-88343619D02*
X110296477Y-89359619D01*
X110490000Y-88633905D01*
X110683524Y-89359619D01*
X110925429Y-88343619D01*
X111264096Y-88440381D02*
X111312477Y-88392000D01*
X111409239Y-88343619D01*
X111651143Y-88343619D01*
X111747905Y-88392000D01*
X111796286Y-88440381D01*
X111844667Y-88537143D01*
X111844667Y-88633905D01*
X111796286Y-88779048D01*
X111215715Y-89359619D01*
X111844667Y-89359619D01*
D11*
X134366800Y-119834599D02*
X134400133Y-119734599D01*
X134433467Y-119701266D01*
X134500133Y-119667932D01*
X134600133Y-119667932D01*
X134666800Y-119701266D01*
X134700133Y-119734599D01*
X134733467Y-119801266D01*
X134733467Y-120067932D01*
X134033467Y-120067932D01*
X134033467Y-119834599D01*
X134066800Y-119767932D01*
X134100133Y-119734599D01*
X134166800Y-119701266D01*
X134233467Y-119701266D01*
X134300133Y-119734599D01*
X134333467Y-119767932D01*
X134366800Y-119834599D01*
X134366800Y-120067932D01*
X134533467Y-119401266D02*
X134533467Y-119067932D01*
X134733467Y-119467932D02*
X134033467Y-119234599D01*
X134733467Y-119001266D01*
X134033467Y-118867932D02*
X134033467Y-118467932D01*
X134733467Y-118667932D02*
X134033467Y-118667932D01*
X134033467Y-118334599D02*
X134033467Y-117934599D01*
X134733467Y-118134599D02*
X134033467Y-118134599D01*
X134366800Y-117701266D02*
X134366800Y-117467933D01*
X134733467Y-117367933D02*
X134733467Y-117701266D01*
X134033467Y-117701266D01*
X134033467Y-117367933D01*
X134733467Y-116667933D02*
X134400133Y-116901267D01*
X134733467Y-117067933D02*
X134033467Y-117067933D01*
X134033467Y-116801267D01*
X134066800Y-116734600D01*
X134100133Y-116701267D01*
X134166800Y-116667933D01*
X134266800Y-116667933D01*
X134333467Y-116701267D01*
X134366800Y-116734600D01*
X134400133Y-116801267D01*
X134400133Y-117067933D01*
X134400133Y-116234600D02*
X134733467Y-116234600D01*
X134033467Y-116467933D02*
X134400133Y-116234600D01*
X134033467Y-116001267D01*
X99968857Y-113859285D02*
X99968857Y-114359285D01*
X100754571Y-114359285D02*
X99254571Y-114359285D01*
X99254571Y-113644999D01*
X99254571Y-113287857D02*
X99254571Y-112430714D01*
X100754571Y-112859285D02*
X99254571Y-112859285D01*
X100754571Y-111930714D02*
X99254571Y-111930714D01*
X99254571Y-111573571D01*
X99326000Y-111359286D01*
X99468857Y-111216428D01*
X99611714Y-111145000D01*
X99897429Y-111073571D01*
X100111714Y-111073571D01*
X100397429Y-111145000D01*
X100540286Y-111216428D01*
X100683143Y-111359286D01*
X100754571Y-111573571D01*
X100754571Y-111930714D01*
X100754571Y-110430714D02*
X99254571Y-110430714D01*
D18*
X95594714Y-99622428D02*
X94832714Y-99622428D01*
X94832714Y-99441000D01*
X94869000Y-99332143D01*
X94941571Y-99259571D01*
X95014143Y-99223286D01*
X95159286Y-99187000D01*
X95268143Y-99187000D01*
X95413286Y-99223286D01*
X95485857Y-99259571D01*
X95558429Y-99332143D01*
X95594714Y-99441000D01*
X95594714Y-99622428D01*
X95594714Y-98461286D02*
X95594714Y-98896714D01*
X95594714Y-98679000D02*
X94832714Y-98679000D01*
X94941571Y-98751571D01*
X95014143Y-98824143D01*
X95050429Y-98896714D01*
X130857172Y-95569314D02*
X130857172Y-94807314D01*
X131038600Y-94807314D01*
X131147457Y-94843600D01*
X131220029Y-94916171D01*
X131256314Y-94988743D01*
X131292600Y-95133886D01*
X131292600Y-95242743D01*
X131256314Y-95387886D01*
X131220029Y-95460457D01*
X131147457Y-95533029D01*
X131038600Y-95569314D01*
X130857172Y-95569314D01*
X131582886Y-94879886D02*
X131619172Y-94843600D01*
X131691743Y-94807314D01*
X131873172Y-94807314D01*
X131945743Y-94843600D01*
X131982029Y-94879886D01*
X132018314Y-94952457D01*
X132018314Y-95025029D01*
X131982029Y-95133886D01*
X131546600Y-95569314D01*
X132018314Y-95569314D01*
X129569029Y-103189314D02*
X129315029Y-102826457D01*
X129133601Y-103189314D02*
X129133601Y-102427314D01*
X129423886Y-102427314D01*
X129496458Y-102463600D01*
X129532743Y-102499886D01*
X129569029Y-102572457D01*
X129569029Y-102681314D01*
X129532743Y-102753886D01*
X129496458Y-102790171D01*
X129423886Y-102826457D01*
X129133601Y-102826457D01*
X130294743Y-102463600D02*
X130222172Y-102427314D01*
X130113315Y-102427314D01*
X130004458Y-102463600D01*
X129931886Y-102536171D01*
X129895601Y-102608743D01*
X129859315Y-102753886D01*
X129859315Y-102862743D01*
X129895601Y-103007886D01*
X129931886Y-103080457D01*
X130004458Y-103153029D01*
X130113315Y-103189314D01*
X130185886Y-103189314D01*
X130294743Y-103153029D01*
X130331029Y-103116743D01*
X130331029Y-102862743D01*
X130185886Y-102862743D01*
X130911601Y-102790171D02*
X131020458Y-102826457D01*
X131056743Y-102862743D01*
X131093029Y-102935314D01*
X131093029Y-103044171D01*
X131056743Y-103116743D01*
X131020458Y-103153029D01*
X130947886Y-103189314D01*
X130657601Y-103189314D01*
X130657601Y-102427314D01*
X130911601Y-102427314D01*
X130984172Y-102463600D01*
X131020458Y-102499886D01*
X131056743Y-102572457D01*
X131056743Y-102645029D01*
X131020458Y-102717600D01*
X130984172Y-102753886D01*
X130911601Y-102790171D01*
X130657601Y-102790171D01*
X131238172Y-103261886D02*
X131818743Y-103261886D01*
X132363029Y-103189314D02*
X132000172Y-103189314D01*
X132000172Y-102427314D01*
X132617029Y-102790171D02*
X132871029Y-102790171D01*
X132979886Y-103189314D02*
X132617029Y-103189314D01*
X132617029Y-102427314D01*
X132979886Y-102427314D01*
X133306458Y-103189314D02*
X133306458Y-102427314D01*
X133487886Y-102427314D01*
X133596743Y-102463600D01*
X133669315Y-102536171D01*
X133705600Y-102608743D01*
X133741886Y-102753886D01*
X133741886Y-102862743D01*
X133705600Y-103007886D01*
X133669315Y-103080457D01*
X133596743Y-103153029D01*
X133487886Y-103189314D01*
X133306458Y-103189314D01*
X99379314Y-92612028D02*
X98617314Y-92612028D01*
X98617314Y-92430600D01*
X98653600Y-92321743D01*
X98726171Y-92249171D01*
X98798743Y-92212886D01*
X98943886Y-92176600D01*
X99052743Y-92176600D01*
X99197886Y-92212886D01*
X99270457Y-92249171D01*
X99343029Y-92321743D01*
X99379314Y-92430600D01*
X99379314Y-92612028D01*
X98617314Y-91922600D02*
X98617314Y-91450886D01*
X98907600Y-91704886D01*
X98907600Y-91596028D01*
X98943886Y-91523457D01*
X98980171Y-91487171D01*
X99052743Y-91450886D01*
X99234171Y-91450886D01*
X99306743Y-91487171D01*
X99343029Y-91523457D01*
X99379314Y-91596028D01*
X99379314Y-91813743D01*
X99343029Y-91886314D01*
X99306743Y-91922600D01*
D11*
X118350000Y-97473333D02*
X118383334Y-97440000D01*
X118450000Y-97406667D01*
X118616667Y-97406667D01*
X118683334Y-97440000D01*
X118716667Y-97473333D01*
X118750000Y-97540000D01*
X118750000Y-97606667D01*
X118716667Y-97706667D01*
X118316667Y-98106667D01*
X118750000Y-98106667D01*
X119016667Y-97473333D02*
X119050001Y-97440000D01*
X119116667Y-97406667D01*
X119283334Y-97406667D01*
X119350001Y-97440000D01*
X119383334Y-97473333D01*
X119416667Y-97540000D01*
X119416667Y-97606667D01*
X119383334Y-97706667D01*
X118983334Y-98106667D01*
X119416667Y-98106667D01*
X119850001Y-97406667D02*
X119916668Y-97406667D01*
X119983334Y-97440000D01*
X120016668Y-97473333D01*
X120050001Y-97540000D01*
X120083334Y-97673333D01*
X120083334Y-97840000D01*
X120050001Y-97973333D01*
X120016668Y-98040000D01*
X119983334Y-98073333D01*
X119916668Y-98106667D01*
X119850001Y-98106667D01*
X119783334Y-98073333D01*
X119750001Y-98040000D01*
X119716668Y-97973333D01*
X119683334Y-97840000D01*
X119683334Y-97673333D01*
X119716668Y-97540000D01*
X119750001Y-97473333D01*
X119783334Y-97440000D01*
X119850001Y-97406667D01*
X120483335Y-98106667D02*
X120416668Y-98073333D01*
X120383335Y-98040000D01*
X120350001Y-97973333D01*
X120350001Y-97773333D01*
X120383335Y-97706667D01*
X120416668Y-97673333D01*
X120483335Y-97640000D01*
X120583335Y-97640000D01*
X120650001Y-97673333D01*
X120683335Y-97706667D01*
X120716668Y-97773333D01*
X120716668Y-97973333D01*
X120683335Y-98040000D01*
X120650001Y-98073333D01*
X120583335Y-98106667D01*
X120483335Y-98106667D01*
X121016668Y-98106667D02*
X121016668Y-97406667D01*
X121316668Y-98106667D02*
X121316668Y-97740000D01*
X121283334Y-97673333D01*
X121216668Y-97640000D01*
X121116668Y-97640000D01*
X121050001Y-97673333D01*
X121016668Y-97706667D01*
X121650001Y-98106667D02*
X121650001Y-97640000D01*
X121650001Y-97706667D02*
X121683334Y-97673333D01*
X121750001Y-97640000D01*
X121850001Y-97640000D01*
X121916667Y-97673333D01*
X121950001Y-97740000D01*
X121950001Y-98106667D01*
X121950001Y-97740000D02*
X121983334Y-97673333D01*
X122050001Y-97640000D01*
X122150001Y-97640000D01*
X122216667Y-97673333D01*
X122250001Y-97740000D01*
X122250001Y-98106667D01*
X122950000Y-98106667D02*
X122550000Y-98106667D01*
X122750000Y-98106667D02*
X122750000Y-97406667D01*
X122683334Y-97506667D01*
X122616667Y-97573333D01*
X122550000Y-97606667D01*
X118350000Y-93688733D02*
X118383334Y-93655400D01*
X118450000Y-93622067D01*
X118616667Y-93622067D01*
X118683334Y-93655400D01*
X118716667Y-93688733D01*
X118750000Y-93755400D01*
X118750000Y-93822067D01*
X118716667Y-93922067D01*
X118316667Y-94322067D01*
X118750000Y-94322067D01*
X119016667Y-93688733D02*
X119050001Y-93655400D01*
X119116667Y-93622067D01*
X119283334Y-93622067D01*
X119350001Y-93655400D01*
X119383334Y-93688733D01*
X119416667Y-93755400D01*
X119416667Y-93822067D01*
X119383334Y-93922067D01*
X118983334Y-94322067D01*
X119416667Y-94322067D01*
X119850001Y-93622067D02*
X119916668Y-93622067D01*
X119983334Y-93655400D01*
X120016668Y-93688733D01*
X120050001Y-93755400D01*
X120083334Y-93888733D01*
X120083334Y-94055400D01*
X120050001Y-94188733D01*
X120016668Y-94255400D01*
X119983334Y-94288733D01*
X119916668Y-94322067D01*
X119850001Y-94322067D01*
X119783334Y-94288733D01*
X119750001Y-94255400D01*
X119716668Y-94188733D01*
X119683334Y-94055400D01*
X119683334Y-93888733D01*
X119716668Y-93755400D01*
X119750001Y-93688733D01*
X119783334Y-93655400D01*
X119850001Y-93622067D01*
X120483335Y-94322067D02*
X120416668Y-94288733D01*
X120383335Y-94255400D01*
X120350001Y-94188733D01*
X120350001Y-93988733D01*
X120383335Y-93922067D01*
X120416668Y-93888733D01*
X120483335Y-93855400D01*
X120583335Y-93855400D01*
X120650001Y-93888733D01*
X120683335Y-93922067D01*
X120716668Y-93988733D01*
X120716668Y-94188733D01*
X120683335Y-94255400D01*
X120650001Y-94288733D01*
X120583335Y-94322067D01*
X120483335Y-94322067D01*
X121016668Y-94322067D02*
X121016668Y-93622067D01*
X121316668Y-94322067D02*
X121316668Y-93955400D01*
X121283334Y-93888733D01*
X121216668Y-93855400D01*
X121116668Y-93855400D01*
X121050001Y-93888733D01*
X121016668Y-93922067D01*
X121650001Y-94322067D02*
X121650001Y-93855400D01*
X121650001Y-93922067D02*
X121683334Y-93888733D01*
X121750001Y-93855400D01*
X121850001Y-93855400D01*
X121916667Y-93888733D01*
X121950001Y-93955400D01*
X121950001Y-94322067D01*
X121950001Y-93955400D02*
X121983334Y-93888733D01*
X122050001Y-93855400D01*
X122150001Y-93855400D01*
X122216667Y-93888733D01*
X122250001Y-93955400D01*
X122250001Y-94322067D01*
X122550000Y-93688733D02*
X122583334Y-93655400D01*
X122650000Y-93622067D01*
X122816667Y-93622067D01*
X122883334Y-93655400D01*
X122916667Y-93688733D01*
X122950000Y-93755400D01*
X122950000Y-93822067D01*
X122916667Y-93922067D01*
X122516667Y-94322067D01*
X122950000Y-94322067D01*
X106869200Y-101207133D02*
X106902534Y-101173800D01*
X106969200Y-101140467D01*
X107135867Y-101140467D01*
X107202534Y-101173800D01*
X107235867Y-101207133D01*
X107269200Y-101273800D01*
X107269200Y-101340467D01*
X107235867Y-101440467D01*
X106835867Y-101840467D01*
X107269200Y-101840467D01*
X107535867Y-101207133D02*
X107569201Y-101173800D01*
X107635867Y-101140467D01*
X107802534Y-101140467D01*
X107869201Y-101173800D01*
X107902534Y-101207133D01*
X107935867Y-101273800D01*
X107935867Y-101340467D01*
X107902534Y-101440467D01*
X107502534Y-101840467D01*
X107935867Y-101840467D01*
X108369201Y-101140467D02*
X108435868Y-101140467D01*
X108502534Y-101173800D01*
X108535868Y-101207133D01*
X108569201Y-101273800D01*
X108602534Y-101407133D01*
X108602534Y-101573800D01*
X108569201Y-101707133D01*
X108535868Y-101773800D01*
X108502534Y-101807133D01*
X108435868Y-101840467D01*
X108369201Y-101840467D01*
X108302534Y-101807133D01*
X108269201Y-101773800D01*
X108235868Y-101707133D01*
X108202534Y-101573800D01*
X108202534Y-101407133D01*
X108235868Y-101273800D01*
X108269201Y-101207133D01*
X108302534Y-101173800D01*
X108369201Y-101140467D01*
X109002535Y-101840467D02*
X108935868Y-101807133D01*
X108902535Y-101773800D01*
X108869201Y-101707133D01*
X108869201Y-101507133D01*
X108902535Y-101440467D01*
X108935868Y-101407133D01*
X109002535Y-101373800D01*
X109102535Y-101373800D01*
X109169201Y-101407133D01*
X109202535Y-101440467D01*
X109235868Y-101507133D01*
X109235868Y-101707133D01*
X109202535Y-101773800D01*
X109169201Y-101807133D01*
X109102535Y-101840467D01*
X109002535Y-101840467D01*
X109535868Y-101840467D02*
X109535868Y-101140467D01*
X109835868Y-101840467D02*
X109835868Y-101473800D01*
X109802534Y-101407133D01*
X109735868Y-101373800D01*
X109635868Y-101373800D01*
X109569201Y-101407133D01*
X109535868Y-101440467D01*
X110169201Y-101840467D02*
X110169201Y-101373800D01*
X110169201Y-101440467D02*
X110202534Y-101407133D01*
X110269201Y-101373800D01*
X110369201Y-101373800D01*
X110435867Y-101407133D01*
X110469201Y-101473800D01*
X110469201Y-101840467D01*
X110469201Y-101473800D02*
X110502534Y-101407133D01*
X110569201Y-101373800D01*
X110669201Y-101373800D01*
X110735867Y-101407133D01*
X110769201Y-101473800D01*
X110769201Y-101840467D01*
X111035867Y-101140467D02*
X111469200Y-101140467D01*
X111235867Y-101407133D01*
X111335867Y-101407133D01*
X111402534Y-101440467D01*
X111435867Y-101473800D01*
X111469200Y-101540467D01*
X111469200Y-101707133D01*
X111435867Y-101773800D01*
X111402534Y-101807133D01*
X111335867Y-101840467D01*
X111135867Y-101840467D01*
X111069200Y-101807133D01*
X111035867Y-101773800D01*
X118324600Y-89878733D02*
X118357934Y-89845400D01*
X118424600Y-89812067D01*
X118591267Y-89812067D01*
X118657934Y-89845400D01*
X118691267Y-89878733D01*
X118724600Y-89945400D01*
X118724600Y-90012067D01*
X118691267Y-90112067D01*
X118291267Y-90512067D01*
X118724600Y-90512067D01*
X118991267Y-89878733D02*
X119024601Y-89845400D01*
X119091267Y-89812067D01*
X119257934Y-89812067D01*
X119324601Y-89845400D01*
X119357934Y-89878733D01*
X119391267Y-89945400D01*
X119391267Y-90012067D01*
X119357934Y-90112067D01*
X118957934Y-90512067D01*
X119391267Y-90512067D01*
X119824601Y-89812067D02*
X119891268Y-89812067D01*
X119957934Y-89845400D01*
X119991268Y-89878733D01*
X120024601Y-89945400D01*
X120057934Y-90078733D01*
X120057934Y-90245400D01*
X120024601Y-90378733D01*
X119991268Y-90445400D01*
X119957934Y-90478733D01*
X119891268Y-90512067D01*
X119824601Y-90512067D01*
X119757934Y-90478733D01*
X119724601Y-90445400D01*
X119691268Y-90378733D01*
X119657934Y-90245400D01*
X119657934Y-90078733D01*
X119691268Y-89945400D01*
X119724601Y-89878733D01*
X119757934Y-89845400D01*
X119824601Y-89812067D01*
X120457935Y-90512067D02*
X120391268Y-90478733D01*
X120357935Y-90445400D01*
X120324601Y-90378733D01*
X120324601Y-90178733D01*
X120357935Y-90112067D01*
X120391268Y-90078733D01*
X120457935Y-90045400D01*
X120557935Y-90045400D01*
X120624601Y-90078733D01*
X120657935Y-90112067D01*
X120691268Y-90178733D01*
X120691268Y-90378733D01*
X120657935Y-90445400D01*
X120624601Y-90478733D01*
X120557935Y-90512067D01*
X120457935Y-90512067D01*
X120991268Y-90512067D02*
X120991268Y-89812067D01*
X121291268Y-90512067D02*
X121291268Y-90145400D01*
X121257934Y-90078733D01*
X121191268Y-90045400D01*
X121091268Y-90045400D01*
X121024601Y-90078733D01*
X120991268Y-90112067D01*
X121624601Y-90512067D02*
X121624601Y-90045400D01*
X121624601Y-90112067D02*
X121657934Y-90078733D01*
X121724601Y-90045400D01*
X121824601Y-90045400D01*
X121891267Y-90078733D01*
X121924601Y-90145400D01*
X121924601Y-90512067D01*
X121924601Y-90145400D02*
X121957934Y-90078733D01*
X122024601Y-90045400D01*
X122124601Y-90045400D01*
X122191267Y-90078733D01*
X122224601Y-90145400D01*
X122224601Y-90512067D01*
X122857934Y-90045400D02*
X122857934Y-90512067D01*
X122691267Y-89778733D02*
X122524600Y-90278733D01*
X122957934Y-90278733D01*
X118657933Y-101308733D02*
X118691267Y-101275400D01*
X118757933Y-101242067D01*
X118924600Y-101242067D01*
X118991267Y-101275400D01*
X119024600Y-101308733D01*
X119057933Y-101375400D01*
X119057933Y-101442067D01*
X119024600Y-101542067D01*
X118624600Y-101942067D01*
X119057933Y-101942067D01*
X119324600Y-101308733D02*
X119357934Y-101275400D01*
X119424600Y-101242067D01*
X119591267Y-101242067D01*
X119657934Y-101275400D01*
X119691267Y-101308733D01*
X119724600Y-101375400D01*
X119724600Y-101442067D01*
X119691267Y-101542067D01*
X119291267Y-101942067D01*
X119724600Y-101942067D01*
X120157934Y-101242067D02*
X120224601Y-101242067D01*
X120291267Y-101275400D01*
X120324601Y-101308733D01*
X120357934Y-101375400D01*
X120391267Y-101508733D01*
X120391267Y-101675400D01*
X120357934Y-101808733D01*
X120324601Y-101875400D01*
X120291267Y-101908733D01*
X120224601Y-101942067D01*
X120157934Y-101942067D01*
X120091267Y-101908733D01*
X120057934Y-101875400D01*
X120024601Y-101808733D01*
X119991267Y-101675400D01*
X119991267Y-101508733D01*
X120024601Y-101375400D01*
X120057934Y-101308733D01*
X120091267Y-101275400D01*
X120157934Y-101242067D01*
X120791268Y-101942067D02*
X120724601Y-101908733D01*
X120691268Y-101875400D01*
X120657934Y-101808733D01*
X120657934Y-101608733D01*
X120691268Y-101542067D01*
X120724601Y-101508733D01*
X120791268Y-101475400D01*
X120891268Y-101475400D01*
X120957934Y-101508733D01*
X120991268Y-101542067D01*
X121024601Y-101608733D01*
X121024601Y-101808733D01*
X120991268Y-101875400D01*
X120957934Y-101908733D01*
X120891268Y-101942067D01*
X120791268Y-101942067D01*
X121324601Y-101942067D02*
X121324601Y-101242067D01*
X121624601Y-101942067D02*
X121624601Y-101575400D01*
X121591267Y-101508733D01*
X121524601Y-101475400D01*
X121424601Y-101475400D01*
X121357934Y-101508733D01*
X121324601Y-101542067D01*
X121957934Y-101942067D02*
X121957934Y-101475400D01*
X121957934Y-101542067D02*
X121991267Y-101508733D01*
X122057934Y-101475400D01*
X122157934Y-101475400D01*
X122224600Y-101508733D01*
X122257934Y-101575400D01*
X122257934Y-101942067D01*
X122257934Y-101575400D02*
X122291267Y-101508733D01*
X122357934Y-101475400D01*
X122457934Y-101475400D01*
X122524600Y-101508733D01*
X122557934Y-101575400D01*
X122557934Y-101942067D01*
X106770733Y-97498733D02*
X106804067Y-97465400D01*
X106870733Y-97432067D01*
X107037400Y-97432067D01*
X107104067Y-97465400D01*
X107137400Y-97498733D01*
X107170733Y-97565400D01*
X107170733Y-97632067D01*
X107137400Y-97732067D01*
X106737400Y-98132067D01*
X107170733Y-98132067D01*
X107437400Y-97498733D02*
X107470734Y-97465400D01*
X107537400Y-97432067D01*
X107704067Y-97432067D01*
X107770734Y-97465400D01*
X107804067Y-97498733D01*
X107837400Y-97565400D01*
X107837400Y-97632067D01*
X107804067Y-97732067D01*
X107404067Y-98132067D01*
X107837400Y-98132067D01*
X108270734Y-97432067D02*
X108337401Y-97432067D01*
X108404067Y-97465400D01*
X108437401Y-97498733D01*
X108470734Y-97565400D01*
X108504067Y-97698733D01*
X108504067Y-97865400D01*
X108470734Y-97998733D01*
X108437401Y-98065400D01*
X108404067Y-98098733D01*
X108337401Y-98132067D01*
X108270734Y-98132067D01*
X108204067Y-98098733D01*
X108170734Y-98065400D01*
X108137401Y-97998733D01*
X108104067Y-97865400D01*
X108104067Y-97698733D01*
X108137401Y-97565400D01*
X108170734Y-97498733D01*
X108204067Y-97465400D01*
X108270734Y-97432067D01*
X108904068Y-98132067D02*
X108837401Y-98098733D01*
X108804068Y-98065400D01*
X108770734Y-97998733D01*
X108770734Y-97798733D01*
X108804068Y-97732067D01*
X108837401Y-97698733D01*
X108904068Y-97665400D01*
X109004068Y-97665400D01*
X109070734Y-97698733D01*
X109104068Y-97732067D01*
X109137401Y-97798733D01*
X109137401Y-97998733D01*
X109104068Y-98065400D01*
X109070734Y-98098733D01*
X109004068Y-98132067D01*
X108904068Y-98132067D01*
X109437401Y-98132067D02*
X109437401Y-97432067D01*
X109737401Y-98132067D02*
X109737401Y-97765400D01*
X109704067Y-97698733D01*
X109637401Y-97665400D01*
X109537401Y-97665400D01*
X109470734Y-97698733D01*
X109437401Y-97732067D01*
X110070734Y-98132067D02*
X110070734Y-97665400D01*
X110070734Y-97732067D02*
X110104067Y-97698733D01*
X110170734Y-97665400D01*
X110270734Y-97665400D01*
X110337400Y-97698733D01*
X110370734Y-97765400D01*
X110370734Y-98132067D01*
X110370734Y-97765400D02*
X110404067Y-97698733D01*
X110470734Y-97665400D01*
X110570734Y-97665400D01*
X110637400Y-97698733D01*
X110670734Y-97765400D01*
X110670734Y-98132067D01*
D18*
X127370114Y-90707028D02*
X126608114Y-90707028D01*
X126608114Y-90525600D01*
X126644400Y-90416743D01*
X126716971Y-90344171D01*
X126789543Y-90307886D01*
X126934686Y-90271600D01*
X127043543Y-90271600D01*
X127188686Y-90307886D01*
X127261257Y-90344171D01*
X127333829Y-90416743D01*
X127370114Y-90525600D01*
X127370114Y-90707028D01*
X126862114Y-89618457D02*
X127370114Y-89618457D01*
X126571829Y-89799886D02*
X127116114Y-89981314D01*
X127116114Y-89509600D01*
M02*
