M48
METRIC,TZ
T1C0.700
T2C0.762
T3C0.813
T4C3.000
%
G90
G05
T1
X106426Y-117856
X107950Y-91440
X108966Y-117856
X112776Y-116586
X112776Y-119126
X113030Y-91440
X117856Y-117856
X122936Y-117856
X128016Y-116586
X128016Y-119126
T2
X97155Y-106045
X97155Y-108585
X97155Y-111125
X97155Y-113665
X97155Y-116205
X97155Y-118745
X104521Y-97815
X105105Y-101524
X112649Y-97815
X113233Y-101524
X116561Y-90195
X116586Y-94005
X116586Y-97790
X116586Y-101625
X124689Y-90195
X124714Y-94005
X124714Y-97790
X124714Y-101625
X127610Y-99035
X132080Y-116840
X132080Y-119380
X135230Y-99035
T3
X99060Y-97790
X99060Y-100330
X100330Y-105410
X100330Y-113030
X102845Y-90780
X102845Y-93320
X102870Y-105410
X102870Y-113030
X105410Y-105410
X105410Y-113030
X107950Y-105410
X107950Y-113030
X110490Y-105410
X110490Y-113030
X113030Y-105410
X113030Y-113030
X115570Y-105410
X115570Y-113030
X118110Y-105410
X118110Y-113030
X120650Y-105410
X120650Y-113030
X123190Y-105410
X123190Y-113030
X125730Y-105410
X125730Y-113030
X128270Y-105410
X128270Y-113030
X130150Y-99035
X130810Y-105410
X130810Y-113030
X130835Y-88875
X130835Y-91415
X132690Y-99035
X133350Y-105410
X133350Y-113030
T4
X97155Y-88265
X101600Y-117856
X137160Y-88265
X137160Y-118745
T0
M30
